<svg data-v-423bf9ae="" xmlns="http://www.w3.org/2000/svg" viewBox="0 0 336 90" class="iconLeft"><!----><!----><!----><g data-v-423bf9ae="" id="57114615-9a7a-4437-9a46-70a4d8ebf90b" fill="white" transform="matrix(3.931848155293183,0,0,3.931848155293183,73.63758815139742,7.293576988800098)"><path d="M2.98 6.02L2.98 13.61L2.98 13.61Q2.98 15.36 2.25 16.29L2.25 16.29L2.25 16.29Q1.51 17.22 0.11 17.22L0.11 17.22L0.11 17.22Q-0.78 17.22-1.35 16.86L-1.35 16.86L-1.35 16.86Q-1.92 16.51-1.92 15.92L-1.92 15.92L-1.92 15.92Q-1.92 15.60-1.73 15.43L-1.73 15.43L-1.73 15.43Q-1.54 15.26-1.20 15.26L-1.20 15.26L-1.20 15.26Q-0.95 15.26-0.82 15.38L-0.82 15.38L-0.82 15.38Q-0.69 15.50-0.48 15.92L-0.48 15.92L-0.48 15.92Q-0.28 16.34-0.11 16.48L-0.11 16.48L-0.11 16.48Q0.06 16.62 0.41 16.62L0.41 16.62L0.41 16.62Q1.08 16.62 1.34 16.16L1.34 16.16L1.34 16.16Q1.61 15.69 1.61 14.53L1.61 14.53L1.61 9.66L1.61 9.66Q1.61 8.85 1.59 8.32L1.59 8.32L1.59 8.32Q1.57 7.80 1.51 7.60L1.51 7.60L1.51 7.60Q1.44 7.28 1.19 7.16L1.19 7.16L1.19 7.16Q0.94 7.04 0.24 7.04L0.24 7.04L0.24 6.55L2.98 6.02ZM1.40 3.18L1.40 3.18L1.40 3.18Q1.40 2.81 1.65 2.56L1.65 2.56L1.65 2.56Q1.90 2.31 2.27 2.31L2.27 2.31L2.27 2.31Q2.63 2.31 2.88 2.56L2.88 2.56L2.88 2.56Q3.14 2.81 3.14 3.18L3.14 3.18L3.14 3.18Q3.14 3.54 2.88 3.79L2.88 3.79L2.88 3.79Q2.63 4.05 2.27 4.05L2.27 4.05L2.27 4.05Q1.90 4.05 1.65 3.79L1.65 3.79L1.65 3.79Q1.40 3.54 1.40 3.18ZM5.66 7.04L4.82 7.04L4.82 6.52L4.82 6.52Q5.56 6.09 5.98 5.66L5.98 5.66L5.98 5.66Q6.40 5.22 6.62 4.62L6.62 4.62L7.03 4.62L7.03 6.38L8.90 6.38L8.90 7.04L7.03 7.04L7.03 11.30L7.03 11.30Q7.03 11.79 7.08 12.12L7.08 12.12L7.08 12.12Q7.13 12.46 7.24 12.66L7.24 12.66L7.24 12.66Q7.35 12.87 7.53 12.95L7.53 12.95L7.53 12.95Q7.71 13.03 7.99 13.03L7.99 13.03L7.99 13.03Q8.34 13.03 8.59 12.89L8.59 12.89L8.59 12.89Q8.83 12.74 9.07 12.39L9.07 12.39L9.42 12.66L9.42 12.66Q9.23 13.17 8.74 13.45L8.74 13.45L8.74 13.45Q8.26 13.72 7.55 13.72L7.55 13.72L7.55 13.72Q6.62 13.72 6.14 13.28L6.14 13.28L6.14 13.28Q5.66 12.84 5.66 12.01L5.66 12.01L5.66 7.04ZM16.42 11.89L16.86 12.28L16.86 12.28Q15.67 13.72 13.90 13.72L13.90 13.72L13.90 13.72Q13.08 13.72 12.40 13.45L12.40 13.45L12.40 13.45Q11.73 13.17 11.25 12.68L11.25 12.68L11.25 12.68Q10.77 12.18 10.50 11.49L10.50 11.49L10.50 11.49Q10.23 10.79 10.23 9.95L10.23 9.95L10.23 9.95Q10.23 9.10 10.51 8.37L10.51 8.37L10.51 8.37Q10.79 7.64 11.30 7.13L11.30 7.13L11.30 7.13Q11.82 6.61 12.52 6.31L12.52 6.31L12.52 6.31Q13.23 6.02 14.07 6.02L14.07 6.02L14.07 6.02Q15.43 6.02 16.17 6.75L16.17 6.75L16.17 6.75Q16.91 7.49 16.91 8.86L16.91 8.86L16.91 8.86Q16.91 9.06 16.84 9.10L16.84 9.10L16.84 9.10Q16.76 9.14 16.48 9.14L16.48 9.14L11.87 9.14L11.87 9.14Q11.84 9.25 11.83 9.41L11.83 9.41L11.83 9.41Q11.82 9.58 11.82 9.77L11.82 9.77L11.82 9.77Q11.82 10.50 11.99 11.10L11.99 11.10L11.99 11.10Q12.17 11.69 12.50 12.11L12.50 12.11L12.50 12.11Q12.82 12.53 13.28 12.76L13.28 12.76L13.28 12.76Q13.73 12.99 14.29 12.99L14.29 12.99L14.29 12.99Q14.88 12.99 15.39 12.73L15.39 12.73L15.39 12.73Q15.89 12.47 16.42 11.89L16.42 11.89ZM11.97 8.50L14.55 8.50L14.55 8.50Q14.83 8.50 14.99 8.48L14.99 8.48L14.99 8.48Q15.16 8.47 15.25 8.43L15.25 8.43L15.25 8.43Q15.33 8.39 15.36 8.31L15.36 8.31L15.36 8.31Q15.39 8.23 15.39 8.11L15.39 8.11L15.39 8.11Q15.39 7.46 14.97 7.08L14.97 7.08L14.97 7.08Q14.56 6.69 13.85 6.69L13.85 6.69L13.85 6.69Q12.33 6.69 11.97 8.50L11.97 8.50ZM24.23 12.01L24.65 12.42L24.65 12.42Q24.15 13.03 23.35 13.38L23.35 13.38L23.35 13.38Q22.55 13.72 21.63 13.72L21.63 13.72L21.63 13.72Q20.89 13.72 20.27 13.45L20.27 13.45L20.27 13.45Q19.64 13.17 19.19 12.68L19.19 12.68L19.19 12.68Q18.75 12.18 18.50 11.48L18.50 11.48L18.50 11.48Q18.26 10.78 18.26 9.93L18.26 9.93L18.26 9.93Q18.26 9.03 18.54 8.31L18.54 8.31L18.54 8.31Q18.82 7.59 19.33 7.08L19.33 7.08L19.33 7.08Q19.84 6.57 20.56 6.29L20.56 6.29L20.56 6.29Q21.28 6.02 22.15 6.02L22.15 6.02L22.15 6.02Q22.69 6.02 23.14 6.11L23.14 6.11L23.14 6.11Q23.59 6.20 23.92 6.36L23.92 6.36L23.92 6.36Q24.25 6.52 24.43 6.75L24.43 6.75L24.43 6.75Q24.61 6.99 24.61 7.25L24.61 7.25L24.61 7.25Q24.61 7.53 24.43 7.69L24.43 7.69L24.43 7.69Q24.25 7.84 23.93 7.84L23.93 7.84L23.93 7.84Q23.67 7.84 23.51 7.74L23.51 7.74L23.51 7.74Q23.34 7.63 23.07 7.27L23.07 7.27L23.07 7.27Q22.79 6.94 22.53 6.81L22.53 6.81L22.53 6.81Q22.27 6.68 21.87 6.68L21.87 6.68L21.87 6.68Q20.87 6.68 20.36 7.45L20.36 7.45L20.36 7.45Q19.85 8.22 19.85 9.72L19.85 9.72L19.85 9.72Q19.85 11.33 20.42 12.16L20.42 12.16L20.42 12.16Q20.99 12.99 22.08 12.99L22.08 12.99L22.08 12.99Q22.67 12.99 23.18 12.76L23.18 12.76L23.18 12.76Q23.70 12.53 24.23 12.01L24.23 12.01ZM27.99 9.56L27.99 11.35L27.99 11.35Q27.99 11.93 28.01 12.26L28.01 12.26L28.01 12.26Q28.04 12.60 28.16 12.78L28.16 12.78L28.16 12.78Q28.28 12.95 28.50 13.01L28.50 13.01L28.50 13.01Q28.73 13.06 29.13 13.09L29.13 13.09L29.13 13.58L25.41 13.58L25.41 13.09L25.41 13.09Q25.82 13.06 26.05 13.01L26.05 13.01L26.05 13.01Q26.29 12.95 26.42 12.78L26.42 12.78L26.42 12.78Q26.54 12.61 26.58 12.30L26.58 12.30L26.58 12.30Q26.61 11.98 26.61 11.45L26.61 11.45L26.61 5.59L26.61 5.59Q26.61 4.76 26.59 4.27L26.59 4.27L26.59 4.27Q26.57 3.78 26.52 3.53L26.52 3.53L26.52 3.53Q26.49 3.36 26.43 3.25L26.43 3.25L26.43 3.25Q26.36 3.15 26.24 3.09L26.24 3.09L26.24 3.09Q26.11 3.02 25.90 3.00L25.90 3.00L25.90 3.00Q25.69 2.97 25.38 2.97L25.38 2.97L25.38 2.49L27.96 1.96L27.96 7.29L28.01 7.29L28.01 7.29Q28.22 7.01 28.54 6.78L28.54 6.78L28.54 6.78Q28.85 6.55 29.22 6.38L29.22 6.38L29.22 6.38Q29.58 6.22 29.98 6.12L29.98 6.12L29.98 6.12Q30.38 6.02 30.76 6.02L30.76 6.02L30.76 6.02Q31.40 6.02 31.94 6.24L31.94 6.24L31.94 6.24Q32.48 6.47 32.77 6.85L32.77 6.85L32.77 6.85Q33.01 7.17 33.12 7.69L33.12 7.69L33.12 7.69Q33.24 8.22 33.24 9.11L33.24 9.11L33.24 11.35L33.24 11.35Q33.24 11.93 33.26 12.26L33.26 12.26L33.26 12.26Q33.29 12.59 33.41 12.77L33.41 12.77L33.41 12.77Q33.53 12.95 33.75 13.01L33.75 13.01L33.75 13.01Q33.98 13.06 34.38 13.09L34.38 13.09L34.38 13.58L30.67 13.58L30.67 13.09L30.67 13.09Q31.07 13.08 31.30 13.01L31.30 13.01L31.30 13.01Q31.54 12.95 31.66 12.78L31.66 12.78L31.66 12.78Q31.78 12.61 31.82 12.30L31.82 12.30L31.82 12.30Q31.85 11.98 31.85 11.45L31.85 11.45L31.85 9.69L31.85 9.69Q31.85 8.12 31.49 7.46L31.49 7.46L31.49 7.46Q31.12 6.79 30.27 6.79L30.27 6.79L30.27 6.79Q29.61 6.79 29.07 7.13L29.07 7.13L29.07 7.13Q28.53 7.46 28.22 8.05L28.22 8.05L28.22 8.05Q28.15 8.20 28.11 8.34L28.11 8.34L28.11 8.34Q28.06 8.47 28.03 8.64L28.03 8.64L28.03 8.64Q28 8.81 27.99 9.02L27.99 9.02L27.99 9.02Q27.99 9.24 27.99 9.56L27.99 9.56ZM41.37 12.01L41.79 12.42L41.79 12.42Q41.29 13.03 40.49 13.38L40.49 13.38L40.49 13.38Q39.69 13.72 38.77 13.72L38.77 13.72L38.77 13.72Q38.02 13.72 37.40 13.45L37.40 13.45L37.40 13.45Q36.78 13.17 36.33 12.68L36.33 12.68L36.33 12.68Q35.88 12.18 35.64 11.48L35.64 11.48L35.64 11.48Q35.39 10.78 35.39 9.93L35.39 9.93L35.39 9.93Q35.39 9.03 35.67 8.31L35.67 8.31L35.67 8.31Q35.95 7.59 36.46 7.08L36.46 7.08L36.46 7.08Q36.97 6.57 37.70 6.29L37.70 6.29L37.70 6.29Q38.42 6.02 39.28 6.02L39.28 6.02L39.28 6.02Q39.83 6.02 40.28 6.11L40.28 6.11L40.28 6.11Q40.73 6.20 41.06 6.36L41.06 6.36L41.06 6.36Q41.38 6.52 41.57 6.75L41.57 6.75L41.57 6.75Q41.75 6.99 41.75 7.25L41.75 7.25L41.75 7.25Q41.75 7.53 41.57 7.69L41.57 7.69L41.57 7.69Q41.38 7.84 41.06 7.84L41.06 7.84L41.06 7.84Q40.81 7.84 40.64 7.74L40.64 7.74L40.64 7.74Q40.47 7.63 40.21 7.27L40.21 7.27L40.21 7.27Q39.93 6.94 39.67 6.81L39.67 6.81L39.67 6.81Q39.41 6.68 39.00 6.68L39.00 6.68L39.00 6.68Q38.01 6.68 37.50 7.45L37.50 7.45L37.50 7.45Q36.99 8.22 36.99 9.72L36.99 9.72L36.99 9.72Q36.99 11.33 37.56 12.16L37.56 12.16L37.56 12.16Q38.12 12.99 39.21 12.99L39.21 12.99L39.21 12.99Q39.80 12.99 40.32 12.76L40.32 12.76L40.32 12.76Q40.84 12.53 41.37 12.01L41.37 12.01ZM45.14 1.96L45.14 11.40L45.14 11.40Q45.14 11.93 45.18 12.25L45.18 12.25L45.18 12.25Q45.22 12.57 45.35 12.75L45.35 12.75L45.35 12.75Q45.49 12.94 45.73 13.01L45.73 13.01L45.73 13.01Q45.98 13.08 46.38 13.09L46.38 13.09L46.38 13.58L42.52 13.58L42.52 13.09L42.52 13.09Q42.94 13.08 43.19 13.00L43.19 13.00L43.19 13.00Q43.44 12.92 43.59 12.75L43.59 12.75L43.59 12.75Q43.74 12.59 43.79 12.29L43.79 12.29L43.79 12.29Q43.83 11.98 43.83 11.49L43.83 11.49L43.83 5.46L43.83 5.46Q43.83 4.70 43.81 4.19L43.81 4.19L43.81 4.19Q43.79 3.68 43.75 3.50L43.75 3.50L43.75 3.50Q43.68 3.18 43.42 3.07L43.42 3.07L43.42 3.07Q43.16 2.95 42.49 2.95L42.49 2.95L42.49 2.48L45.14 1.96ZM51.65 10.54L51.65 9.44L51.65 9.44Q50.85 9.74 50.30 10.04L50.30 10.04L50.30 10.04Q49.74 10.33 49.41 10.63L49.41 10.63L49.41 10.63Q49.07 10.92 48.92 11.21L48.92 11.21L48.92 11.21Q48.78 11.51 48.78 11.82L48.78 11.82L48.78 11.82Q48.78 12.28 49.08 12.57L49.08 12.57L49.08 12.57Q49.39 12.87 49.90 12.87L49.90 12.87L49.90 12.87Q50.26 12.87 50.57 12.68L50.57 12.68L50.57 12.68Q50.89 12.50 51.13 12.19L51.13 12.19L51.13 12.19Q51.37 11.87 51.51 11.45L51.51 11.45L51.51 11.45Q51.65 11.02 51.65 10.54L51.65 10.54ZM49.63 9.72L51.65 8.83L51.65 8.26L51.65 8.26Q51.65 6.55 50.19 6.55L50.19 6.55L50.19 6.55Q49.95 6.55 49.78 6.59L49.78 6.59L49.78 6.59Q49.62 6.64 49.50 6.73L49.50 6.73L49.50 6.73Q49.39 6.83 49.30 7.01L49.30 7.01L49.30 7.01Q49.21 7.20 49.13 7.46L49.13 7.46L49.13 7.46Q48.97 7.87 48.82 8.00L48.82 8.00L48.82 8.00Q48.68 8.13 48.40 8.13L48.40 8.13L48.40 8.13Q47.70 8.13 47.70 7.43L47.70 7.43L47.70 7.43Q47.70 6.76 48.41 6.39L48.41 6.39L48.41 6.39Q49.13 6.02 50.44 6.02L50.44 6.02L50.44 6.02Q51.84 6.02 52.43 6.52L52.43 6.52L52.43 6.52Q53.02 7.01 53.02 8.20L53.02 8.20L53.02 11.34L53.02 11.34Q53.02 12.94 53.65 12.94L53.65 12.94L53.65 12.94Q53.84 12.94 54.03 12.89L54.03 12.89L54.03 12.89Q54.21 12.84 54.33 12.63L54.33 12.63L54.53 12.96L54.53 12.96Q54.36 13.29 53.91 13.50L53.91 13.50L53.91 13.50Q53.47 13.72 52.98 13.72L52.98 13.72L52.98 13.72Q52.36 13.72 52.06 13.33L52.06 13.33L52.06 13.33Q51.76 12.94 51.76 12.22L51.76 12.22L51.69 12.22L51.69 12.22Q51.32 12.91 50.68 13.31L50.68 13.31L50.68 13.31Q50.04 13.71 49.25 13.71L49.25 13.71L49.25 13.71Q48.37 13.71 47.87 13.26L47.87 13.26L47.87 13.26Q47.36 12.81 47.36 12.05L47.36 12.05L47.36 12.05Q47.36 11.72 47.48 11.41L47.48 11.41L47.48 11.41Q47.60 11.10 47.87 10.82L47.87 10.82L47.87 10.82Q48.13 10.54 48.57 10.27L48.57 10.27L48.57 10.27Q49 10.00 49.63 9.72L49.63 9.72ZM56 13.09L55.72 13.58L55.41 13.58L55.41 11.17L55.76 11.17L55.76 11.17Q56.31 13.15 57.75 13.15L57.75 13.15L57.75 13.15Q58.31 13.15 58.64 12.87L58.64 12.87L58.64 12.87Q58.97 12.60 58.97 12.04L58.97 12.04L58.97 12.04Q58.97 11.83 58.91 11.68L58.91 11.68L58.91 11.68Q58.84 11.54 58.67 11.38L58.67 11.38L58.67 11.38Q58.49 11.21 58.18 11.00L58.18 11.00L58.18 11.00Q57.86 10.79 57.34 10.47L57.34 10.47L57.34 10.47Q56.87 10.18 56.52 9.93L56.52 9.93L56.52 9.93Q56.17 9.67 55.93 9.41L55.93 9.41L55.93 9.41Q55.69 9.16 55.57 8.86L55.57 8.86L55.57 8.86Q55.45 8.57 55.45 8.18L55.45 8.18L55.45 8.18Q55.45 7.70 55.61 7.30L55.61 7.30L55.61 7.30Q55.78 6.90 56.06 6.62L56.06 6.62L56.06 6.62Q56.34 6.34 56.71 6.18L56.71 6.18L56.71 6.18Q57.09 6.02 57.54 6.02L57.54 6.02L57.54 6.02Q57.92 6.02 58.32 6.14L58.32 6.14L58.32 6.14Q58.73 6.26 59.04 6.45L59.04 6.45L59.32 6.16L59.58 6.16L59.58 8.18L59.22 8.18L59.22 8.18Q58.91 7.32 58.55 6.96L58.55 6.96L58.55 6.96Q58.18 6.59 57.65 6.59L57.65 6.59L57.65 6.59Q57.18 6.59 56.89 6.85L56.89 6.85L56.89 6.85Q56.60 7.10 56.60 7.55L56.60 7.55L56.60 7.55Q56.60 7.78 56.68 7.96L56.68 7.96L56.68 7.96Q56.76 8.13 56.92 8.30L56.92 8.30L56.92 8.30Q57.09 8.47 57.35 8.64L57.35 8.64L57.35 8.64Q57.61 8.82 57.97 9.04L57.97 9.04L57.97 9.04Q58.58 9.42 59.00 9.72L59.00 9.72L59.00 9.72Q59.43 10.01 59.70 10.30L59.70 10.30L59.70 10.30Q59.96 10.58 60.09 10.89L60.09 10.89L60.09 10.89Q60.21 11.20 60.21 11.59L60.21 11.59L60.21 11.59Q60.21 12.59 59.57 13.15L59.57 13.15L59.57 13.15Q58.93 13.72 57.88 13.72L57.88 13.72L57.88 13.72Q56.78 13.72 56 13.09L56 13.09ZM62.36 13.09L62.08 13.58L61.77 13.58L61.77 11.17L62.12 11.17L62.12 11.17Q62.66 13.15 64.11 13.15L64.11 13.15L64.11 13.15Q64.67 13.15 65.00 12.87L65.00 12.87L65.00 12.87Q65.32 12.60 65.32 12.04L65.32 12.04L65.32 12.04Q65.32 11.83 65.26 11.68L65.26 11.68L65.26 11.68Q65.20 11.54 65.02 11.38L65.02 11.38L65.02 11.38Q64.85 11.21 64.53 11.00L64.53 11.00L64.53 11.00Q64.22 10.79 63.70 10.47L63.70 10.47L63.70 10.47Q63.22 10.18 62.87 9.93L62.87 9.93L62.87 9.93Q62.52 9.67 62.29 9.41L62.29 9.41L62.29 9.41Q62.05 9.16 61.93 8.86L61.93 8.86L61.93 8.86Q61.81 8.57 61.81 8.18L61.81 8.18L61.81 8.18Q61.81 7.70 61.97 7.30L61.97 7.30L61.97 7.30Q62.13 6.90 62.41 6.62L62.41 6.62L62.41 6.62Q62.69 6.34 63.07 6.18L63.07 6.18L63.07 6.18Q63.45 6.02 63.90 6.02L63.90 6.02L63.90 6.02Q64.27 6.02 64.68 6.14L64.68 6.14L64.68 6.14Q65.09 6.26 65.39 6.45L65.39 6.45L65.67 6.16L65.94 6.16L65.94 8.18L65.58 8.18L65.58 8.18Q65.27 7.32 64.90 6.96L64.90 6.96L64.90 6.96Q64.54 6.59 64.01 6.59L64.01 6.59L64.01 6.59Q63.53 6.59 63.24 6.85L63.24 6.85L63.24 6.85Q62.96 7.10 62.96 7.55L62.96 7.55L62.96 7.55Q62.96 7.78 63.03 7.96L63.03 7.96L63.03 7.96Q63.11 8.13 63.28 8.30L63.28 8.30L63.28 8.30Q63.45 8.47 63.71 8.64L63.71 8.64L63.71 8.64Q63.97 8.82 64.33 9.04L64.33 9.04L64.33 9.04Q64.93 9.42 65.36 9.72L65.36 9.72L65.36 9.72Q65.79 10.01 66.05 10.30L66.05 10.30L66.05 10.30Q66.32 10.58 66.44 10.89L66.44 10.89L66.44 10.89Q66.57 11.20 66.57 11.59L66.57 11.59L66.57 11.59Q66.57 12.59 65.93 13.15L65.93 13.15L65.93 13.15Q65.28 13.72 64.23 13.72L64.23 13.72L64.23 13.72Q63.14 13.72 62.36 13.09L62.36 13.09Z"></path></g><!----><g data-v-423bf9ae="" id="b6539572-94de-4d9a-aa09-32d4b8c45277" transform="matrix(2.8125,0,0,2.8125,-21.194407999515533,0)" stroke="none" fill="white"><path d="M18.396 26.495L7.807 15.905 18.432 5.28l.707.707-9.918 9.918 9.882 9.883z"></path><path d="M23.194 1v4.194H19V1h4.194m1-1H18v6.194h6.194V0zM23.194 26.806V31H19v-4.194h4.194m1-1H18V32h6.194v-6.194z"></path></g><!----></svg>