 <!DOCTYPE svg PUBLIC "-//W3C//DTD SVG 1.1//EN" "http://www.w3.org/Graphics/SVG/1.1/DTD/svg11.dtd">
<svg xmlns="http://www.w3.org/2000/svg" width="865.76" height="682.89" viewBox="0 0 865.76 682.89">
<defs>
<style xmlns="http://www.w3.org/1999/xhtml">*, ::after, ::before { box-sizing: border-box; }
img, svg { vertical-align: middle; }
</style>
<style xmlns="http://www.w3.org/1999/xhtml">*, body, html { -webkit-font-smoothing: antialiased; }
img, svg { max-width: 100%; }
</style>
</defs>
<path d="M121.37,409s118.47-56,204.88-56c84.66,0,199.47,28.29,230.68,34.63,82,16.64,187.46,21.35,187.46,21.35Z" fill="#dbdbdb"/>
<path d="M744.39,409s-64.55-37.53-137.46-37.53c-50.89,0-123.94,15.12-192.74,23.62C388,398.32,251.64,409,251.64,409Z" fill="#c7c7c7"/>
<path d="M143.2,62c11,0,196.36,1.21,208,.84a.91.91,0,0,0,.46-1.67c-7.34-3.63-15.68-2.89-23.31-5.47-4.49-1.53-7.24-4.46-10.35-7.81a21.51,21.51,0,0,0-9.65-6.3,20.33,20.33,0,0,0-10.5-.33c-3.77.9-7,3.06-10.62,4.41-8.9,3.35-17.55.17-23.91-6.42-5.24-5.44-10.4-10.56-17.53-13.48a23.29,23.29,0,0,0-18.57-.26c-6.8,3.06-11.46,9.19-17.84,13-7.57,4.42-16.63,3.37-25,4.71s-14.79,8.38-22.11,12.44a15.66,15.66,0,0,1-8,2.46,44,44,0,0,1-4.84-.69c-2.53-.3-4.92-.23-6.62,1.87C142.39,59.84,142.48,62,143.2,62Z" fill="#ebebeb"/>
<path d="M570.76,330.29c8,0,143.35.89,151.86.62.61,0,1-.92.33-1.21-5.36-2.65-11.44-2.13-17-4-3.28-1.11-5.28-3.25-7.55-5.72a15.83,15.83,0,0,0-7-4.59,15,15,0,0,0-7.66-.23c-2.75.64-5.13,2.22-7.75,3.21-6.51,2.46-12.82.13-17.46-4.68-3.83-4-7.59-7.66-12.8-9.85a17,17,0,0,0-13.56-.19c-5,2.25-8.36,6.77-13,9.48-5.53,3.24-12.15,2.47-18.24,3.45s-10.88,6.05-16.29,9.12a11.31,11.31,0,0,1-5.84,1.81,32.92,32.92,0,0,1-3.55-.49c-1.84-.23-3.59-.19-4.83,1.36C570.09,328.76,570.15,330.29,570.76,330.29Z" fill="#ebebeb"/>
<path d="M455,268c8,0,143.36.89,151.87.61.61,0,.93-.92.33-1.21-5.36-2.65-11.44-2.13-17-4-3.27-1.1-5.28-3.24-7.56-5.71a15.82,15.82,0,0,0-7-4.6,15.07,15.07,0,0,0-7.66-.23c-2.74.65-5.11,2.23-7.66,3.22-6.51,2.45-12.82.12-17.46-4.69-3.83-4-7.59-7.66-12.79-9.85a17,17,0,0,0-13.56-.18c-5,2.25-8.37,6.77-13,9.48-5.52,3.23-12.13,2.47-18.23,3.45s-10.73,6.13-16.15,9.07a11.31,11.31,0,0,1-5.84,1.81,32.92,32.92,0,0,1-3.55-.49c-1.84-.23-3.59-.19-4.83,1.36C454.43,266.38,454.5,268,455,268Z" fill="#ebebeb"/>
<path d="M261.66,196.88c8,0,143.35.89,151.85.62.62,0,.95-.91.34-1.21-5.36-2.65-11.44-2.13-17-4-3.28-1.11-5.31-3.25-7.57-5.72a15.75,15.75,0,0,0-7-4.59,15,15,0,0,0-7.66-.23c-2.74.64-5.13,2.22-7.75,3.21-6.5,2.46-12.83.13-17.47-4.68-3.83-4-7.58-7.66-12.79-9.85a17,17,0,0,0-13.56-.19c-5,2.25-8.36,6.77-13,9.5-5.53,3.22-12.15,2.47-18.25,3.43s-10.72,6.13-16.15,9.09a11.49,11.49,0,0,1-5.83,1.81,31.13,31.13,0,0,1-3.56-.51c-1.83-.23-3.58-.18-4.82,1.36C261.06,195.29,261.12,196.88,261.66,196.88Z" fill="#ebebeb"/>
<path d="M352.86,155.49c.15.44,213.28,0,210.59,0-1.22,0,1.86-1.84.66-2.44-6.94-3.43-14.52-3.54-22.09-4.23a33.88,33.88,0,0,1-12.9-3.06c-4-2.11-6.51-5.76-9.36-9.19a40,40,0,0,0-36.4-13.79c-15.15,2.37-27.1,13.91-42.28,16-9.12,1.27-17.75-2.25-26.66-3.49a32.44,32.44,0,0,0-20,3.66c-4.81,2.37-9.19,4.38-14.68,4.76-4.18.29-8.36-.18-12.54-.23a28.16,28.16,0,0,0-18.47,7.37C348.05,151.49,345.91,155.49,352.86,155.49Z" fill="#ebebeb"/>
<rect x="237.48" y="106.13" width="57.6" height="301.93" fill="#dbdbdb"/>
<rect x="274.94" y="115.95" width="11.2" height="11.52" fill="#ebebeb"/>
<rect x="260.63" y="115.95" width="11.2" height="11.52" fill="#ebebeb"/>
<rect x="274.94" y="135.53" width="11.2" height="11.54" fill="#ebebeb"/>
<rect x="260.63" y="135.53" width="11.2" height="11.54" fill="#ebebeb"/>
<rect x="274.94" y="155.09" width="11.2" height="11.54" fill="#ebebeb"/>
<rect x="260.63" y="155.09" width="11.2" height="11.54" fill="#ebebeb"/>
<rect x="274.94" y="174.65" width="11.2" height="11.54" fill="#ebebeb"/>
<rect x="260.63" y="174.65" width="11.2" height="11.54" fill="#ebebeb"/>
<rect x="274.94" y="194.23" width="11.2" height="11.54" fill="#ebebeb"/>
<rect x="260.63" y="194.23" width="11.2" height="11.54" fill="#ebebeb"/>
<rect x="274.94" y="213.8" width="11.2" height="11.54" fill="#ebebeb"/>
<rect x="260.63" y="213.8" width="11.2" height="11.54" fill="#ebebeb"/>
<rect x="274.94" y="233.39" width="11.2" height="11.52" fill="#ebebeb"/>
<rect x="260.63" y="233.39" width="11.2" height="11.52" fill="#ebebeb"/>
<rect x="274.94" y="252.96" width="11.2" height="11.54" fill="#ebebeb"/>
<rect x="260.63" y="252.96" width="11.2" height="11.54" fill="#ebebeb"/>
<rect x="274.94" y="272.52" width="11.2" height="11.54" fill="#ebebeb"/>
<rect x="260.63" y="272.52" width="11.2" height="11.54" fill="#ebebeb"/>
<rect x="274.94" y="292.1" width="11.2" height="11.54" fill="#ebebeb"/>
<rect x="260.63" y="292.1" width="11.2" height="11.54" fill="#ebebeb"/>
<rect x="274.94" y="311.66" width="11.2" height="11.54" fill="#ebebeb"/>
<rect x="260.63" y="311.66" width="11.2" height="11.54" fill="#ebebeb"/>
<rect x="274.94" y="331.24" width="11.2" height="11.54" fill="#ebebeb"/>
<rect x="260.63" y="331.24" width="11.2" height="11.54" fill="#ebebeb"/>
<rect x="274.94" y="350.81" width="11.2" height="11.54" fill="#ebebeb"/>
<rect x="260.63" y="350.81" width="11.2" height="11.54" fill="#ebebeb"/>
<rect x="274.94" y="370.39" width="11.2" height="11.54" fill="#ebebeb"/>
<rect x="246.43" y="370.4" width="11.2" height="11.54" fill="#ebebeb"/>
<rect x="246.43" y="350.82" width="11.2" height="11.54" fill="#ebebeb"/>
<rect x="246.43" y="331.24" width="11.2" height="11.54" fill="#ebebeb"/>
<rect x="246.43" y="311.68" width="11.2" height="11.54" fill="#ebebeb"/>
<rect x="246.43" y="292.1" width="11.2" height="11.54" fill="#ebebeb"/>
<rect x="246.43" y="272.54" width="11.2" height="11.54" fill="#ebebeb"/>
<rect x="246.43" y="252.96" width="11.2" height="11.54" fill="#ebebeb"/>
<rect x="246.43" y="233.38" width="11.2" height="11.52" fill="#ebebeb"/>
<rect x="246.43" y="213.81" width="11.2" height="11.54" fill="#ebebeb"/>
<rect x="246.43" y="194.23" width="11.2" height="11.54" fill="#ebebeb"/>
<rect x="246.43" y="174.67" width="11.2" height="11.54" fill="#ebebeb"/>
<rect x="246.43" y="155.09" width="11.2" height="11.54" fill="#ebebeb"/>
<rect x="246.43" y="135.51" width="11.2" height="11.54" fill="#ebebeb"/>
<rect x="246.43" y="115.95" width="11.2" height="11.52" fill="#ebebeb"/>
<rect x="260.63" y="370.39" width="11.2" height="11.54" fill="#ebebeb"/>
<rect x="192.09" y="106.13" width="45.41" height="301.93" fill="#a6a6a6"/>
<rect x="196.76" y="370.4" width="9.25" height="11.54" fill="#c7c7c7"/>
<rect x="208.59" y="370.4" width="9.25" height="11.54" fill="#c7c7c7"/>
<rect x="196.76" y="350.82" width="9.25" height="11.54" fill="#c7c7c7"/>
<rect x="208.59" y="350.82" width="9.25" height="11.54" fill="#c7c7c7"/>
<rect x="196.76" y="331.24" width="9.25" height="11.54" fill="#c7c7c7"/>
<rect x="208.59" y="331.24" width="9.25" height="11.54" fill="#c7c7c7"/>
<rect x="196.76" y="311.68" width="9.25" height="11.54" fill="#c7c7c7"/>
<rect x="208.59" y="311.68" width="9.25" height="11.54" fill="#c7c7c7"/>
<rect x="196.76" y="292.1" width="9.25" height="11.54" fill="#c7c7c7"/>
<rect x="208.59" y="292.1" width="9.25" height="11.54" fill="#c7c7c7"/>
<rect x="196.76" y="272.54" width="9.25" height="11.54" fill="#c7c7c7"/>
<rect x="208.59" y="272.54" width="9.25" height="11.54" fill="#c7c7c7"/>
<rect x="196.76" y="252.96" width="9.25" height="11.54" fill="#c7c7c7"/>
<rect x="208.59" y="252.96" width="9.25" height="11.54" fill="#c7c7c7"/>
<rect x="196.76" y="233.38" width="9.25" height="11.52" fill="#c7c7c7"/>
<rect x="208.59" y="233.38" width="9.25" height="11.52" fill="#c7c7c7"/>
<rect x="196.76" y="213.81" width="9.25" height="11.54" fill="#c7c7c7"/>
<rect x="208.59" y="213.81" width="9.25" height="11.54" fill="#c7c7c7"/>
<rect x="196.76" y="194.23" width="9.25" height="11.54" fill="#c7c7c7"/>
<rect x="208.59" y="194.23" width="9.25" height="11.54" fill="#c7c7c7"/>
<rect x="196.76" y="174.67" width="9.25" height="11.54" fill="#c7c7c7"/>
<rect x="208.59" y="174.67" width="9.25" height="11.54" fill="#c7c7c7"/>
<rect x="196.76" y="155.09" width="9.25" height="11.54" fill="#c7c7c7"/>
<rect x="208.59" y="155.09" width="9.25" height="11.54" fill="#c7c7c7"/>
<rect x="196.76" y="135.51" width="9.25" height="11.54" fill="#c7c7c7"/>
<rect x="208.59" y="135.51" width="9.25" height="11.54" fill="#c7c7c7"/>
<rect x="196.76" y="115.95" width="9.25" height="11.52" fill="#c7c7c7"/>
<rect x="220.31" y="115.95" width="9.25" height="11.52" fill="#c7c7c7"/>
<rect x="220.31" y="135.53" width="9.25" height="11.54" fill="#c7c7c7"/>
<rect x="220.31" y="155.09" width="9.25" height="11.54" fill="#c7c7c7"/>
<rect x="220.31" y="174.65" width="9.25" height="11.54" fill="#c7c7c7"/>
<rect x="220.31" y="194.23" width="9.25" height="11.54" fill="#c7c7c7"/>
<rect x="220.31" y="213.8" width="9.25" height="11.54" fill="#c7c7c7"/>
<rect x="220.31" y="233.39" width="9.25" height="11.52" fill="#c7c7c7"/>
<rect x="220.31" y="252.96" width="9.25" height="11.54" fill="#c7c7c7"/>
<rect x="220.31" y="272.52" width="9.25" height="11.54" fill="#c7c7c7"/>
<rect x="220.31" y="292.1" width="9.25" height="11.54" fill="#c7c7c7"/>
<rect x="220.31" y="311.66" width="9.25" height="11.54" fill="#c7c7c7"/>
<rect x="220.31" y="331.24" width="9.25" height="11.54" fill="#c7c7c7"/>
<rect x="220.31" y="350.81" width="9.25" height="11.54" fill="#c7c7c7"/>
<rect x="220.31" y="370.39" width="9.25" height="11.54" fill="#c7c7c7"/>
<rect x="208.59" y="115.95" width="9.25" height="11.52" fill="#c7c7c7"/>
<rect x="275.22" y="225.82" width="72.22" height="182.37" fill="#ebebeb"/>
<rect x="275.22" y="219.67" width="73.95" height="6.14" fill="#c7c7c7"/>
<rect x="333.59" y="234.88" width="7.31" height="173.3" fill="#fff"/>
<rect x="320.63" y="234.88" width="7.32" height="173.3" fill="#fff"/>
<rect x="307.68" y="234.88" width="7.31" height="173.3" fill="#fff"/>
<rect x="294.7" y="234.88" width="7.32" height="173.3" fill="#fff"/>
<rect x="281.76" y="234.88" width="7.31" height="173.3" fill="#fff"/>
<rect x="333.59" y="242.63" width="7.32" height="12.13" fill="#ebebeb"/>
<rect x="320.63" y="242.63" width="7.32" height="12.13" fill="#ebebeb"/>
<rect x="307.67" y="242.63" width="7.32" height="12.13" fill="#ebebeb"/>
<rect x="294.7" y="242.63" width="7.32" height="12.13" fill="#ebebeb"/>
<rect x="281.74" y="242.63" width="7.32" height="12.13" fill="#ebebeb"/>
<rect x="333.59" y="262.33" width="7.32" height="12.13" fill="#ebebeb"/>
<rect x="320.63" y="262.33" width="7.32" height="12.13" fill="#ebebeb"/>
<rect x="307.67" y="262.33" width="7.32" height="12.13" fill="#ebebeb"/>
<rect x="294.7" y="262.33" width="7.32" height="12.13" fill="#ebebeb"/>
<rect x="281.74" y="262.33" width="7.32" height="12.13" fill="#ebebeb"/>
<rect x="333.59" y="282.05" width="7.32" height="12.13" fill="#ebebeb"/>
<rect x="320.63" y="282.05" width="7.32" height="12.13" fill="#ebebeb"/>
<rect x="307.67" y="282.05" width="7.32" height="12.13" fill="#ebebeb"/>
<rect x="294.7" y="282.05" width="7.32" height="12.13" fill="#ebebeb"/>
<rect x="281.74" y="282.05" width="7.32" height="12.13" fill="#ebebeb"/>
<rect x="333.59" y="301.75" width="7.32" height="12.13" fill="#ebebeb"/>
<rect x="320.63" y="301.75" width="7.32" height="12.13" fill="#ebebeb"/>
<rect x="307.67" y="301.75" width="7.32" height="12.13" fill="#ebebeb"/>
<rect x="294.7" y="301.75" width="7.32" height="12.13" fill="#ebebeb"/>
<rect x="281.74" y="301.75" width="7.32" height="12.13" fill="#ebebeb"/>
<rect x="333.59" y="321.47" width="7.32" height="12.13" fill="#ebebeb"/>
<rect x="320.63" y="321.47" width="7.32" height="12.13" fill="#ebebeb"/>
<rect x="307.67" y="321.47" width="7.32" height="12.13" fill="#ebebeb"/>
<rect x="294.7" y="321.47" width="7.32" height="12.13" fill="#ebebeb"/>
<rect x="281.74" y="321.47" width="7.32" height="12.13" fill="#ebebeb"/>
<rect x="333.59" y="341.17" width="7.32" height="12.13" fill="#ebebeb"/>
<rect x="320.63" y="341.17" width="7.32" height="12.13" fill="#ebebeb"/>
<rect x="307.67" y="341.17" width="7.32" height="12.13" fill="#ebebeb"/>
<rect x="294.7" y="341.17" width="7.32" height="12.13" fill="#ebebeb"/>
<rect x="281.74" y="341.17" width="7.32" height="12.13" fill="#ebebeb"/>
<rect x="333.59" y="360.9" width="7.32" height="12.13" fill="#ebebeb"/>
<rect x="320.63" y="360.9" width="7.32" height="12.13" fill="#ebebeb"/>
<rect x="307.67" y="360.9" width="7.32" height="12.13" fill="#ebebeb"/>
<rect x="294.7" y="360.9" width="7.32" height="12.13" fill="#ebebeb"/>
<rect x="281.74" y="360.9" width="7.32" height="12.13" fill="#ebebeb"/>
<rect x="333.59" y="380.61" width="7.32" height="12.13" fill="#ebebeb"/>
<rect x="320.63" y="380.61" width="7.32" height="12.13" fill="#ebebeb"/>
<rect x="307.67" y="380.61" width="7.32" height="12.13" fill="#ebebeb"/>
<rect x="294.7" y="380.61" width="7.32" height="12.13" fill="#ebebeb"/>
<rect x="281.74" y="380.61" width="7.32" height="12.13" fill="#ebebeb"/>
<rect x="333.59" y="400.32" width="7.31" height="7.87" fill="#ebebeb"/>
<rect x="320.63" y="400.32" width="7.32" height="7.87" fill="#ebebeb"/>
<rect x="307.68" y="400.32" width="7.31" height="7.87" fill="#ebebeb"/>
<rect x="294.7" y="400.32" width="7.32" height="7.87" fill="#ebebeb"/>
<rect x="281.76" y="400.32" width="7.31" height="7.87" fill="#ebebeb"/>
<rect x="228.86" y="225.82" width="46.36" height="182.37" fill="#dbdbdb"/>
<rect x="226.87" y="219.67" width="48.37" height="6.14" fill="#c7c7c7"/>
<rect x="261.38" y="234.88" width="7.32" height="173.3" fill="#c7c7c7"/>
<rect x="248.42" y="234.88" width="7.31" height="173.3" fill="#c7c7c7"/>
<rect x="235.46" y="234.88" width="7.32" height="173.3" fill="#c7c7c7"/>
<rect x="261.37" y="242.63" width="7.32" height="12.13" fill="#dbdbdb"/>
<rect x="248.41" y="242.63" width="7.32" height="12.13" fill="#dbdbdb"/>
<rect x="235.46" y="242.63" width="7.32" height="12.13" fill="#dbdbdb"/>
<rect x="261.37" y="262.33" width="7.32" height="12.13" fill="#dbdbdb"/>
<rect x="248.41" y="262.33" width="7.32" height="12.13" fill="#dbdbdb"/>
<rect x="235.46" y="262.33" width="7.32" height="12.13" fill="#dbdbdb"/>
<rect x="261.37" y="282.05" width="7.32" height="12.13" fill="#dbdbdb"/>
<rect x="248.41" y="282.05" width="7.32" height="12.13" fill="#dbdbdb"/>
<rect x="235.46" y="282.05" width="7.32" height="12.13" fill="#dbdbdb"/>
<rect x="261.37" y="301.75" width="7.32" height="12.13" fill="#dbdbdb"/>
<rect x="248.41" y="301.75" width="7.32" height="12.13" fill="#dbdbdb"/>
<rect x="235.46" y="301.75" width="7.32" height="12.13" fill="#dbdbdb"/>
<rect x="261.37" y="321.47" width="7.32" height="12.13" fill="#dbdbdb"/>
<rect x="248.41" y="321.47" width="7.32" height="12.13" fill="#dbdbdb"/>
<rect x="235.46" y="321.47" width="7.32" height="12.13" fill="#dbdbdb"/>
<rect x="261.37" y="341.17" width="7.32" height="12.13" fill="#dbdbdb"/>
<rect x="248.41" y="341.17" width="7.32" height="12.13" fill="#dbdbdb"/>
<rect x="235.46" y="341.17" width="7.32" height="12.13" fill="#dbdbdb"/>
<rect x="261.37" y="360.9" width="7.32" height="12.13" fill="#dbdbdb"/>
<rect x="248.41" y="360.9" width="7.32" height="12.13" fill="#dbdbdb"/>
<rect x="235.46" y="360.9" width="7.32" height="12.13" fill="#dbdbdb"/>
<rect x="261.37" y="380.61" width="7.32" height="12.13" fill="#dbdbdb"/>
<rect x="248.41" y="380.61" width="7.32" height="12.13" fill="#dbdbdb"/>
<rect x="235.46" y="380.61" width="7.32" height="12.13" fill="#dbdbdb"/>
<rect x="261.38" y="400.32" width="7.32" height="7.87" fill="#dbdbdb"/>
<rect x="248.42" y="400.32" width="7.31" height="7.87" fill="#dbdbdb"/>
<rect x="235.46" y="400.32" width="7.32" height="7.87" fill="#dbdbdb"/>
<rect x="158.32" y="195.58" width="30.44" height="35.96" fill="#dbdbdb"/>
<rect x="139.02" y="195.58" width="19.3" height="37.27" fill="#c7c7c7"/>
<rect x="137.75" y="211.48" width="19.15" height="21.39" fill="#dbdbdb"/>
<rect x="125.8" y="211.48" width="11.95" height="21.39" fill="#c7c7c7"/>
<rect x="151.23" y="229.21" width="49.21" height="178.87" fill="#ebebeb"/>
<rect x="179.34" y="236.89" width="15.47" height="6.33" fill="#fff"/>
<rect x="159.55" y="236.89" width="15.47" height="6.33" fill="#fff"/>
<rect x="179.34" y="247.63" width="15.47" height="6.33" fill="#fff"/>
<rect x="159.55" y="247.63" width="15.47" height="6.33" fill="#fff"/>
<rect x="179.34" y="258.36" width="15.47" height="6.33" fill="#fff"/>
<rect x="159.55" y="258.36" width="15.47" height="6.33" fill="#fff"/>
<rect x="179.34" y="269.1" width="15.47" height="6.33" fill="#fff"/>
<rect x="159.55" y="269.1" width="15.47" height="6.33" fill="#fff"/>
<rect x="179.34" y="279.83" width="15.47" height="6.33" fill="#fff"/>
<rect x="159.55" y="279.83" width="15.47" height="6.33" fill="#fff"/>
<rect x="179.34" y="290.57" width="15.47" height="6.33" fill="#fff"/>
<rect x="159.55" y="290.57" width="15.47" height="6.33" fill="#fff"/>
<rect x="179.34" y="301.31" width="15.47" height="6.33" fill="#fff"/>
<rect x="159.55" y="301.31" width="15.47" height="6.33" fill="#fff"/>
<rect x="179.34" y="312.05" width="15.47" height="6.33" fill="#fff"/>
<rect x="159.55" y="312.05" width="15.47" height="6.33" fill="#fff"/>
<rect x="179.34" y="322.77" width="15.47" height="6.33" fill="#fff"/>
<rect x="159.55" y="322.77" width="15.47" height="6.33" fill="#fff"/>
<rect x="179.34" y="333.51" width="15.47" height="6.33" fill="#fff"/>
<rect x="159.55" y="333.51" width="15.47" height="6.33" fill="#fff"/>
<rect x="179.34" y="344.25" width="15.47" height="6.33" fill="#fff"/>
<rect x="159.55" y="344.25" width="15.47" height="6.33" fill="#fff"/>
<rect x="179.34" y="354.99" width="15.47" height="6.33" fill="#fff"/>
<rect x="159.55" y="354.99" width="15.47" height="6.33" fill="#fff"/>
<rect x="179.34" y="365.71" width="15.47" height="6.33" fill="#fff"/>
<rect x="159.55" y="365.71" width="15.47" height="6.33" fill="#fff"/>
<rect x="179.34" y="376.45" width="15.47" height="6.33" fill="#fff"/>
<rect x="159.55" y="376.45" width="15.47" height="6.33" fill="#fff"/>
<rect x="111.35" y="229.21" width="39.88" height="178.87" fill="#c7c7c7"/>
<rect x="115.33" y="376.47" width="12.7" height="6.33" fill="#ebebeb"/>
<rect x="131.59" y="376.47" width="12.7" height="6.33" fill="#ebebeb"/>
<rect x="115.33" y="365.73" width="12.7" height="6.33" fill="#ebebeb"/>
<rect x="131.59" y="365.73" width="12.7" height="6.33" fill="#ebebeb"/>
<rect x="115.33" y="354.99" width="12.7" height="6.33" fill="#ebebeb"/>
<rect x="131.59" y="354.99" width="12.7" height="6.33" fill="#ebebeb"/>
<rect x="115.33" y="344.25" width="12.7" height="6.33" fill="#ebebeb"/>
<rect x="131.59" y="344.25" width="12.7" height="6.33" fill="#ebebeb"/>
<rect x="115.33" y="333.53" width="12.7" height="6.33" fill="#ebebeb"/>
<rect x="131.59" y="333.53" width="12.7" height="6.33" fill="#ebebeb"/>
<rect x="115.33" y="322.79" width="12.7" height="6.33" fill="#ebebeb"/>
<rect x="131.59" y="322.79" width="12.7" height="6.33" fill="#ebebeb"/>
<rect x="115.33" y="312.05" width="12.7" height="6.33" fill="#ebebeb"/>
<rect x="131.59" y="312.05" width="12.7" height="6.33" fill="#ebebeb"/>
<rect x="115.33" y="301.31" width="12.7" height="6.33" fill="#ebebeb"/>
<rect x="131.59" y="301.31" width="12.7" height="6.33" fill="#ebebeb"/>
<rect x="115.33" y="290.58" width="12.7" height="6.33" fill="#ebebeb"/>
<rect x="131.59" y="290.58" width="12.7" height="6.33" fill="#ebebeb"/>
<rect x="115.33" y="279.84" width="12.7" height="6.33" fill="#ebebeb"/>
<rect x="131.59" y="279.84" width="12.7" height="6.33" fill="#ebebeb"/>
<rect x="115.33" y="269.1" width="12.7" height="6.33" fill="#ebebeb"/>
<rect x="131.59" y="269.1" width="12.7" height="6.33" fill="#ebebeb"/>
<rect x="115.33" y="258.36" width="12.7" height="6.33" fill="#ebebeb"/>
<rect x="131.59" y="258.36" width="12.7" height="6.33" fill="#ebebeb"/>
<rect x="115.33" y="247.64" width="12.7" height="6.33" fill="#ebebeb"/>
<rect x="131.59" y="247.64" width="12.7" height="6.33" fill="#ebebeb"/>
<rect x="115.33" y="236.9" width="12.7" height="6.33" fill="#ebebeb"/>
<rect x="131.59" y="236.9" width="12.7" height="6.33" fill="#ebebeb"/>
<path d="M738.8,540.69c-1-.42-1.46,1.24-.46,1.65a5.53,5.53,0,0,1,3.23,6.7.86.86,0,0,0,1.64.46A7.3,7.3,0,0,0,738.8,540.69Z" fill="#ebebeb"/>
<path d="M746.27,539.09a13.1,13.1,0,0,0-1,7.56c.16,1.09,1.82.63,1.65-.46a11,11,0,0,1,.81-6.24C748.19,539,746.72,538.1,746.27,539.09Z" fill="#ebebeb"/>
<path d="M701,432c-1-.41-1.54,1.23-.45,1.65a5.53,5.53,0,0,1,3.22,6.7.86.86,0,1,0,1.65.46A7.3,7.3,0,0,0,701,432Z" fill="#ebebeb"/>
<path d="M708.42,430.4a13.14,13.14,0,0,0-1,7.55c.18,1.07,1.82.61,1.65-.46a11.06,11.06,0,0,1,.82-6.24C710.33,430.26,708.86,429.4,708.42,430.4Z" fill="#ebebeb"/>
<path d="M249.36,558.67a.88.88,0,0,0-.86,1.54,5.24,5.24,0,0,1,2.82,5.16c-.09,1.1,1.62,1.1,1.71,0A6.91,6.91,0,0,0,249.36,558.67Z" fill="#ebebeb"/>
<path d="M114.22,468.65a.88.88,0,0,0-.86,1.53,5.28,5.28,0,0,1,2.82,5.18c-.1,1.09,1.62,1.09,1.71,0A6.92,6.92,0,0,0,114.22,468.65Z" fill="#ebebeb"/>
<path d="M537.16,505.16c-.52-1-2-.11-1.53.86a13.58,13.58,0,0,1,1.61,7.31.85.85,0,0,0,1.7,0A15.26,15.26,0,0,0,537.16,505.16Z" fill="#ebebeb"/>
<path d="M541.12,506.29a9,9,0,0,0-1.09,5.46c.14,1.07,1.85,1.09,1.72,0a7.42,7.42,0,0,1,.85-4.6C543.19,506.19,541.65,505.33,541.12,506.29Z" fill="#ebebeb"/>
<path d="M194.28,518c-.52-1-2-.11-1.53.87a13.58,13.58,0,0,1,1.53,7.29.86.86,0,0,0,1.72,0A15.52,15.52,0,0,0,194.28,518Z" fill="#ebebeb"/>
<path d="M198.25,519.1a8.88,8.88,0,0,0-1.09,5.46c.12,1.07,1.84,1.08,1.7,0a7.36,7.36,0,0,1,.86-4.6C200.25,519,198.77,518.14,198.25,519.1Z" fill="#ebebeb"/>
<path d="M294.89,451.63a.88.88,0,0,0-.86,1.53,5.24,5.24,0,0,1,2.82,5.17c-.09,1.1,1.62,1.08,1.72,0A6.92,6.92,0,0,0,294.89,451.63Z" fill="#ebebeb"/>
<path d="M300,449c-.52-1-2-.11-1.53.85a13.54,13.54,0,0,1,1.61,7.3.85.85,0,0,0,1.7,0A15.3,15.3,0,0,0,300,449Z" fill="#ebebeb"/>
<path d="M303.93,450.1a9,9,0,0,0-1.09,5.44c.14,1.09,1.85,1.09,1.72,0a7.29,7.29,0,0,1,.85-4.6C305.93,450,304.46,449.13,303.93,450.1Z" fill="#ebebeb"/>
<path d="M335.76,499.22a.88.88,0,1,0-.85,1.53,7,7,0,0,1,3.43,6.43.86.86,0,0,0,1.71,0A8.61,8.61,0,0,0,335.76,499.22Z" fill="#ebebeb"/>
<path d="M342,503.31l-.6,3.43c-.18,1.07,1.46,1.53,1.64.46l.6-3.43C343.85,502.68,342.21,502.22,342,503.31Z" fill="#ebebeb"/>
<path d="M130.58,604.05c-.84-.69-2.07.52-1.21,1.21a7.94,7.94,0,0,1,2.94,6.7.86.86,0,0,0,1.71,0A9.6,9.6,0,0,0,130.58,604.05Z" fill="#ebebeb"/>
<path d="M423.14,573.89c.84-.69,2.05.5,1.21,1.21a7.91,7.91,0,0,0-3,6.68.86.86,0,0,1-1.72,0A9.55,9.55,0,0,1,423.14,573.89Z" fill="#ebebeb"/>
<path d="M751.28,453c.84-.69,2.05.51,1.21,1.21a8,8,0,0,0-3,6.7.86.86,0,0,1-1.71,0A9.65,9.65,0,0,1,751.28,453Z" fill="#ebebeb"/>
<path d="M620.69,574.32a10.08,10.08,0,0,0-2.71,9c.18,1.09,1.84.63,1.64-.44a8.3,8.3,0,0,1,2.27-7.37C622.65,574.73,621.46,573.52,620.69,574.32Z" fill="#ebebeb"/>
<path d="M614.46,575.25V581a.86.86,0,1,0,1.71,0v-5.73a.86.86,0,0,0-1.71,0Z" fill="#ebebeb"/>
<path d="M623.6,577.06a5.29,5.29,0,0,0-2.42,4.59c0,1.09,1.76,1.09,1.72,0a3.51,3.51,0,0,1,1.53-3.17C625.38,577.92,624.52,576.45,623.6,577.06Z" fill="#ebebeb"/>
<polygon points="103.42 408.18 185.78 407.81 268.15 407.68 432.88 407.42 597.6 407.68 679.98 407.81 762.34 408.18 679.98 408.56 597.6 408.7 432.88 408.95 268.15 408.69 185.78 408.56 103.42 408.18" fill="#666"/>
<path d="M378,344.57s17.22,38.23-10.88,38.3-9.93-39.52-9.93-39.52-6.51-2.85,1-24.19,10.89-21.35,14-21.35c4,0,7.66,9.2,5,23.41C377.19,321.18,387.09,338.84,378,344.57Z" fill="#999"/>
<polygon points="364.64 408.18 367.29 350.59 370.06 408.18 364.64 408.18" fill="#666"/>
<polygon points="366.22 374.74 376.41 362.8 368.41 376.32 366.22 374.74" fill="#666"/>
<path d="M536.15,348.68s-8-3.17-14.35,7.89c-6.51,11.35,1.67,18.83,8.15,14.37,0,0,5.09,10.72,15.32,8.12s11.81-10.73,11.81-10.73,9,.62,9.29-6.12S560,349.49,560,349.49s-.4-16.78-11.34-16.64S536.15,348.68,536.15,348.68Z" fill="#b3b3b3"/>
<polygon points="543.66 408.17 545.88 358.22 548.23 408.15 543.66 408.17" fill="#666"/>
<polygon points="545.22 376.99 538.19 362.99 546.39 374.8 545.22 376.99" fill="#666"/>
<path d="M439.45,348.68s-8-3.17-14.35,7.89c-6.51,11.35,1.67,18.83,8.15,14.37,0,0,5.1,10.72,15.32,8.12s11.81-10.73,11.81-10.73,9,.62,9.27-6.12-6.38-12.72-6.38-12.72-.39-16.78-11.32-16.64S439.45,348.68,439.45,348.68Z" fill="#b3b3b3"/>
<polygon points="446.96 408.17 449.19 358.22 451.54 408.15 446.96 408.17" fill="#666"/>
<polygon points="448.54 376.99 441.5 362.99 449.69 374.8 448.54 376.99" fill="#666"/>
<path d="M745.11,344.33s17.22,38.21-10.88,38.3-9.93-39.53-9.93-39.53-6.51-2.85,1-24.19,10.91-21.4,14-21.4c4,0,7.66,9.19,5,23.41C744.31,320.92,754.21,338.6,745.11,344.33Z" fill="#999"/>
<polygon points="731.76 407.94 734.41 350.33 737.19 407.92 731.76 407.94" fill="#666"/>
<polygon points="733.34 374.48 743.53 362.54 735.55 376.06 733.34 374.48" fill="#666"/>
<path d="M687.35,344.33s17.2,38.21-10.88,38.3-9.93-39.53-9.93-39.53-6.51-2.85,1-24.19,10.89-21.34,14-21.34c4,0,7.66,9.19,5,23.41C686.55,320.92,696.39,338.6,687.35,344.33Z" fill="#999"/>
<polygon points="674.01 407.94 676.66 350.33 679.41 407.92 674.01 407.94" fill="#666"/>
<polygon points="675.58 374.48 685.77 362.54 677.77 376.06 675.58 374.48" fill="#666"/>
<path d="M463.66,352.45s-15,33.5,9.6,33.47,8.64-34.64,8.64-34.64,5.7-2.51-.93-21.19-9.58-18.67-12.26-18.67c-3.47,0-6.69,8.1-4.3,20.51C464.33,331.93,455.69,347.44,463.66,352.45Z" fill="#999"/>
<polygon points="475.47 408.14 473.05 357.69 470.74 408.14 475.47 408.14" fill="#666"/>
<polygon points="474.03 378.83 465.08 368.39 472.11 380.21 474.03 378.83" fill="#666"/>
<path d="M600.51,352.45s-15,33.5,9.61,33.47,8.63-34.64,8.63-34.64,5.69-2.51-.94-21.19-9.57-18.67-12.26-18.67c-3.47,0-6.69,8.1-4.32,20.51C601.17,331.93,592.55,347.44,600.51,352.45Z" fill="#999"/>
<polygon points="612.33 408.14 609.91 357.69 607.59 408.14 612.33 408.14" fill="#666"/>
<polygon points="610.89 378.83 601.94 368.39 608.97 380.21 610.89 378.83" fill="#666"/>
<path d="M681.47,348.48s-8.06-3.17-14.36,7.86c-6.51,11.35,1.67,18.81,8.15,14.35,0,0,5.1,10.73,15.32,8.12s11.81-10.72,11.81-10.72,9,.63,9.27-6.13-6.37-12.7-6.37-12.7-.4-16.85-11.32-16.65S681.47,348.48,681.47,348.48Z" fill="#b3b3b3"/>
<polygon points="688.97 407.95 691.21 358.01 693.55 407.95 688.97 407.95" fill="#666"/>
<polygon points="690.52 376.73 683.52 362.77 691.9 374.57 690.52 376.73" fill="#666"/>
<path d="M605,183.71c6.25,5,11,12.88,7.75,21.34-3.85,9.82-15.32,13.53-24.3,14.77-9.73,1.35-22,.31-28.77-8.38-4.34-5.55-5-14.26-.8-19.8-16.37,1.35-36.49.56-45.21-16.85a26.17,26.17,0,0,1-1.25-21.45c2.94-7.07,9.34-11.36,15.81-14.27a104,104,0,0,1,50.71-8.42,90.51,90.51,0,0,1,24.82,5.17c6.12,2.37,12.45,6.13,15.76,12.42,3.51,6.71,2.73,14.82-.63,21.45C615.77,175.83,610.59,180.23,605,183.71Z" fill="#0071f2" data-primary="true"/>
<path d="M761,164.33c-.09,2.14-3,4-4.46,2-14.66-20.16-30.09-40.63-50.33-54.72C669.1,85.7,622.25,88,580.44,96.24c-23.71,4.6-47.09,11.13-70.85,15.51a282.43,282.43,0,0,1-35.13,4.41c-11.11.63-23.29-.29-33.61,4.7a1.94,1.94,0,0,1-2.54-1,1.88,1.88,0,0,1-.07-1.3,1.22,1.22,0,0,1,0-.8,67,67,0,0,1,12.43-25.37c24.51-31,64.86-36.49,100.7-36.48,10.72-20.94,33.52-31.15,54.28-36.62,22-5.82,45.53-6.52,67.41.28A97.8,97.8,0,0,1,721.12,52.8a94.54,94.54,0,0,1,14.2,25.67,195,195,0,0,1,5.3,20.87c.6,3.06,11.6,5.79,19.49,27.9C764.2,138.79,761.55,152,761,164.33Z" fill="#0071f2" data-primary="true"/>
<path d="M754.61,183.6c-9.93,15.66-30,24.36-49.89,23.84-6.12,11.6-19.65,17.82-33,21.36a123.34,123.34,0,0,1-47.16,3.06c-12.93-1.64-28.63-5.3-34.24-17.08a15.32,15.32,0,0,1,.46-15.21c3.55-5.35,10.42-8.16,16.53-10.62a143.48,143.48,0,0,1,16.27-5.39,65.68,65.68,0,0,1-30.82-14.64,199,199,0,0,1-75.67,1.18,202.3,202.3,0,0,1-32.86-8.59,120,120,0,0,1-27.1-12.75c-7.2-4.81-13.56-10.84-16.76-18.38a26.92,26.92,0,0,1,2.05-24c10.11-17.59,33.7-24.13,54.11-27.15,23.36-3.45,47.05-2.1,70.18,2C572.06,65.33,592,56.55,608.07,50.8a166.22,166.22,0,0,1,55.53-9.56c17.94,0,36.77,2.5,53.2,9.2,15.78,6.23,27.46,17.88,28.61,33.73,1,14.42-6.89,27.78-18.53,37.34A46.74,46.74,0,0,1,750,134.27C763.42,148,764.56,167.9,754.61,183.6Z" fill="#0071f2" data-primary="true"/>
<path d="M754.61,183.6c-9.93,15.66-30,24.36-49.89,23.84-6.12,11.6-19.65,17.82-33,21.36a123.34,123.34,0,0,1-47.16,3.06c-12.93-1.64-28.63-5.3-34.24-17.08a15.32,15.32,0,0,1,.46-15.21c3.55-5.35,10.42-8.16,16.53-10.62a143.48,143.48,0,0,1,16.27-5.39,65.68,65.68,0,0,1-30.82-14.64,199,199,0,0,1-75.67,1.18,202.3,202.3,0,0,1-32.86-8.59,120,120,0,0,1-27.1-12.75c-7.2-4.81-13.56-10.84-16.76-18.38a26.92,26.92,0,0,1,2.05-24c10.11-17.59,33.7-24.13,54.11-27.15,23.36-3.45,47.05-2.1,70.18,2C572.06,65.33,592,56.55,608.07,50.8a166.22,166.22,0,0,1,55.53-9.56c17.94,0,36.77,2.5,53.2,9.2,15.78,6.23,27.46,17.88,28.61,33.73,1,14.42-6.89,27.78-18.53,37.34A46.74,46.74,0,0,1,750,134.27C763.42,148,764.56,167.9,754.61,183.6Z" opacity="0.2"/>
<path d="M640.84,219.24h.09a.34.34,0,0,0,.2,0c7.12-4.06,4-15.48,1.38-21.64-.22-.52-5.52,7.86-5.76,12.26A12.59,12.59,0,0,0,640.84,219.24Z" fill="#455a64"/>
<path d="M620.15,215.12s10.47-4.72,15.11,1.73a7.33,7.33,0,0,1-6.54,3.34C624.05,220.11,620.15,215.12,620.15,215.12Z" fill="#455a64"/>
<path d="M711.08,184.06s-11.14-2.42-14.49,4.89a7.16,7.16,0,0,0,7,1.88C708.2,189.78,711.08,184.06,711.08,184.06Z" fill="#0071f2" data-primary="true"/>
<path d="M451,109s.74,12.1,8.22,13.65a8.37,8.37,0,0,0-.14-7.74C457,110.42,451,109,451,109Z" fill="#0071f2" data-primary="true"/>
<path d="M466.8,136.54a13.83,13.83,0,0,0-6.57-8.89,30.78,30.78,0,0,0-11.43-3.06S454.33,140.32,466.8,136.54Z" fill="#0071f2" data-primary="true"/>
<path d="M630.86,209.85s3.19-4.6-6.12-11C624.81,198.85,624.7,207.49,630.86,209.85Z" fill="#455a64"/>
<path d="M696.54,184.14s-2.89-4.84,6.71-10.56C703.25,173.58,702.84,182.21,696.54,184.14Z" fill="#0071f2" data-primary="true"/>
<path d="M545.76,127.54s11.12-2.4,14.48,4.89a7.12,7.12,0,0,1-7,1.89C548.64,133.27,545.76,127.54,545.76,127.54Z" fill="#0071f2" data-primary="true"/>
<path d="M560.28,127.62s2.91-4.83-6.69-10.55C553.59,117.07,554,125.71,560.28,127.62Z" fill="#0071f2" data-primary="true"/>
<path d="M468.88,130.88s4.86-2.46-.46-12.74C468.42,118.14,464.5,125.69,468.88,130.88Z" fill="#0071f2" data-primary="true"/>
<path d="M518,146.27a24.66,24.66,0,0,0,4.6,1.91h0c9.68,3.57,32.37,11.11,44.87,15.8h0a49.72,49.72,0,0,1,8.52,3.66c3.34,2.8,17.9,23.67,20,32.08a58,58,0,0,1,.35,8h0c.14,13.79-.46,43.6-1.3,77.31h0c-.21,8.62-.46,17.51-.7,26.44h0c-.37,13.57-.77,27.3-1.15,40.46V352l-.1,3.3v.1c-.39,13.27-.78,25.9-1.13,37.14h0c-.86,27.81-1.53,47.23-1.53,47.23h80.86s-1.85-15.79-4.6-39.32h0c-1.05-9-2.25-19.15-3.5-30h0c-1.32-11.2-2.7-23.13-4.13-35.24h0c-.64-5.51-1.28-11.09-1.93-16.67-.89-7.66-1.79-15.41-2.66-23-.46-3.93-.91-7.86-1.37-11.72h0c-.34-3.15-.71-6.28-1.08-9.37-.57-5-1.14-9.9-1.67-14.63l-.1-.77c-.26-2.22-.5-4.4-.75-6.53v-.12h0c-3.64-31.62-6.25-54.83-6.25-56.1,0-4.18,17.18-51.92,17.18-51.92l-4-2.56s-17.68,39-25.58,42.88a13.29,13.29,0,0,1-3.06,1h0c-6.93,1.33-13.79-3.73-17.19-10.41-2.76-5.31-7.11-17.55-10.16-25.27a33.2,33.2,0,0,0-3.07-6.59c-.67-.74-3.7-.52-3.81.5-.61,6,10.25,30.81,7.4,33.86-.86.92-4.87-2.65-10.14-8.15h0c-7.86-8.24-18.51-20.77-25.53-29.11h0c-3.9-4.59-6.68-7.84-7.21-8.3-2.15-1.78-3.94,2.14-3.07,3.06s19.08,21.9,18.39,24.7S520.94,142,519.81,143,517.26,144.92,518,146.27Z" fill="#000000" data-secondary="true"/>
<path d="M649.52,252.3h0c0,1,1.12,14.41,2.07,24.08.77,7.83,1.53,13.16,1.53,7.36h0c.08-4.89,4.14-15.95,9.2-28.18,8.73-21,20.5-45.41,20.34-48-.26-4.06-3.06-3.18-3.06-3.18-1.27,0-5.07,8.91-12.17,24.06S651.53,258.55,649.52,252.3Z" fill="#000000" data-secondary="true"/>
<g opacity="0.6">
<path d="M518,145.74a24,24,0,0,0,4.6,1.92h0c9.68,3.57,32.37,11.1,44.87,15.79h0a51.34,51.34,0,0,1,8.52,3.66c3.34,2.81,17.9,23.67,20,32.08a58,58,0,0,1,.35,8h0c.14,13.78-.46,43.6-1.3,77.3h0c-.21,8.63-.46,17.51-.7,26.45h0c-.37,13.57-.77,27.3-1.15,40.46v.09l-.1,3.29v.11c-.39,13.27-.78,25.89-1.13,37.14h0c-.86,27.8-1.53,47.23-1.53,47.23h80.86s-1.85-15.8-4.6-39.33h0c-1.05-9-2.25-19.15-3.5-30h0c-1.32-11.2-2.7-23.13-4.13-35.23h0c-.64-5.52-1.28-11.09-1.93-16.67-.89-7.66-1.79-15.41-2.66-23-.46-3.94-.91-7.86-1.37-11.72h0c-.34-3.16-.71-6.28-1.08-9.38-.57-5-1.14-9.89-1.67-14.63l-.1-.76c-.26-2.23-.5-4.4-.75-6.53v-.12h0c-3.64-31.63-6.25-54.84-6.25-56.11,0-4.18,17.18-51.92,17.18-51.92l-4-2.56s-17.68,39-25.58,42.89a13.26,13.26,0,0,1-3.06,1h0c-6.93,1.33-13.79-3.72-17.19-10.4-2.76-5.32-7.11-17.56-10.16-25.28A33.47,33.47,0,0,0,597.4,143c-.67-.73-3.7-.52-3.81.51-.61,6,10.25,30.81,7.4,33.86-.86.92-4.87-2.65-10.14-8.15h0c-7.86-8.25-18.51-20.78-25.53-29.11h0c-3.9-4.6-6.68-7.85-7.21-8.31-2.15-1.77-3.94,2.15-3.07,3.07s19.08,21.89,18.39,24.69-52.49-18.07-53.62-17S517.26,144.39,518,145.74Z"/>
<path d="M649.52,251.77h0c0,1,1.12,14.42,2.07,24.09.77,7.83,1.53,13.16,1.53,7.35h0c.08-4.89,4.14-15.95,9.2-28.17,8.73-21,20.5-45.41,20.34-48-.26-4.06-3.06-3.19-3.06-3.19-1.27,0-5.07,8.92-12.17,24.07S651.53,258,649.52,251.77Z"/>
</g>
<g opacity="0.1">
<path d="M631.31,298a188.31,188.31,0,0,0,4,32.17c3.86,19.2,9.19,38,12.7,57.33a307.08,307.08,0,0,1,4,30.64c.42,5.21.72,10.45.94,15.69.09,2,.12,4.09.2,6.13h5.65c-.08-3.24-.31-6.48-.48-9.64q-.4-8.71-1.22-17.42c-1.87-19.73-6.37-38.51-11.69-57.48S635.34,317.62,633.32,298C633.18,296.59,631.26,296.59,631.31,298Z"/>
<path d="M634.33,220.11c2.25,9.19,4.13,18.38,6.2,27.67s4.29,18.38,5.62,27.84c2.59,18.38,1.72,36.76.4,55.24a.72.72,0,0,1-1.44,0c-.24-18.38,0-36.88-2.31-55.15-2.27-18.62-6.62-36.77-9.64-55.32A.6.6,0,0,1,634.33,220.11Z"/>
<path d="M631,269.58a171.62,171.62,0,0,0,.63-22.22.47.47,0,0,1,.44-.48.46.46,0,0,1,.46.35c1.67,6.78.85,14.32.49,21.23-.38,7.42,0,14.77-.18,22.17a.66.66,0,0,1-1.29.18C629.15,284.16,630.3,276.46,631,269.58Z"/>
<path d="M637.88,276.83A61,61,0,0,1,639.7,290a96.15,96.15,0,0,1-.09,14.2.38.38,0,1,1-.76,0c-.42-4.59-.79-9.08-1.18-13.63s-1.14-9.07-1.09-13.56a.66.66,0,0,1,1.3-.18Z"/>
<path d="M599.17,427.16c1.22-10.63,1.87-21.44,2.78-32.05s1.61-21.14,1.93-31.74.49-21.2.28-31.8-1.35-21.56-1.26-32.28a1,1,0,0,1,2-.3c2.39,10.12,3.06,21.05,3.71,31.41.73,11,1,22,.73,33s-1,21.6-2.23,32.31a297.5,297.5,0,0,1-6,31.76C600.87,428.57,599,428.34,599.17,427.16Z"/>
<path d="M612.33,439.85h5c.49-2.85.79-5.7,1.07-8.46a204.79,204.79,0,0,0,.6-21.6c-.13-15.56-1.43-31-2.1-46.53a.84.84,0,1,0-1.67-.22.81.81,0,0,0,0,.22c-.36,15.17-1.29,30.23-1.18,45.43,0,7.2,0,14.4-.54,21.6C613.26,433.52,612.82,436.68,612.33,439.85Z"/>
<path d="M614.1,330.94a.91.91,0,1,1,1.81,0h0a114.89,114.89,0,0,1-.14,22.86.5.5,0,0,1-.5.5.51.51,0,0,1-.51-.5C614.18,346.23,614.09,338.54,614.1,330.94Z"/>
<path d="M626.37,325.7a1.12,1.12,0,0,1,2.18,0c1.35,8.59,1.53,17.45,2.45,26s2.1,17.7,3.59,26.48c2.94,17.48,6.78,34.82,11.24,51.93.15.61-.7,1-1,.45a209.28,209.28,0,0,1-15.69-51.28A235.92,235.92,0,0,1,626,353C625.53,344.08,625,334.58,626.37,325.7Z"/>
<path d="M624.9,410.47c0,4.32,0,8.65.13,13s.49,9,.79,13.55c0,.91.1,1.87.13,2.87h4.85V436.4c0-4.33-.07-8.65-.5-13s-1-8.61-1.67-12.9a87.67,87.67,0,0,0-2.36-13.16c-.17-.51-1-.65-1.11,0A93.88,93.88,0,0,0,624.9,410.47Z"/>
<path d="M656.8,368.59c3.19,10.61,6.79,21,9.85,31.69l.08.21c-1.06-9-2.25-19.15-3.51-30h0l-.28-.87a93.31,93.31,0,0,1-4-16.73,78.84,78.84,0,0,1,.12-17.1v-.59h0c-.65-5.52-1.29-11.1-1.93-16.67a128.64,128.64,0,0,0-3.48,17.28A78.26,78.26,0,0,0,656.8,368.59Z"/>
<path d="M595,285.05c.34-1.19.63-2.4.92-3.55a122.19,122.19,0,0,0,2.48-12A158.59,158.59,0,0,0,600.27,246a175.73,175.73,0,0,0-1.4-23.61c-.5-4.06-1.21-8.08-2-12.08-.17-.81-.32-1.67-.49-2.55C596.47,221.6,595.87,251.35,595,285.05Z"/>
<path d="M619.39,229.55c.11-.71,1.09-.48,1.12.17.52,8.22.67,16.53,1.07,24.77s.95,16.13,1.24,24.19.38,16.13,0,24.17a171.1,171.1,0,0,1-3.06,23.66c-.11.64-1.06.49-1-.15.2-16.26-.78-32.57-.88-48.86C617.76,261.67,617.18,245.25,619.39,229.55Z"/>
<path d="M609.06,214.06c0-.52.81-.55.78,0a459.92,459.92,0,0,0,.54,46.08c1,15.32,3.06,30.34,1.26,45.67-.1.69-1.08.75-1.06,0,.17-7.87-1.13-15.64-2.1-23.42-.9-7.39-1.53-14.8-1.81-22.25A354.69,354.69,0,0,1,609.06,214.06Z"/>
<path d="M592,392.6c.69-3.55,1.35-7.12,2-10.72a228,228,0,0,0,3.8-24.52,141.51,141.51,0,0,0-1.14-24.51c-.72-7.12-1.53-14.22-2.3-21.32-.36,13.57-.76,27.3-1.14,40.46v.09c0,1.1,0,2.21-.1,3.29v.11C592.69,368.73,592.3,381.36,592,392.6Z"/>
<path d="M650.43,258.89c3.46-2,5.79-6.41,8-9.72s4.42-6.8,6.64-10.2c.16-.25.6-.11.48.21a73.27,73.27,0,0,1-6.34,13.58c-2,3.06-4.68,7.34-8.55,7.14a.56.56,0,0,1-.51-.6A.51.51,0,0,1,650.43,258.89Z"/>
<path d="M668.81,229c1-1.77,1.93-3.53,2.85-5.32a.5.5,0,0,1,.91.4h0a46.87,46.87,0,0,1-1.9,5.65c-.66,1.53-1.35,3.72-2.87,4.48a.65.65,0,0,1-.87-.26.73.73,0,0,1-.08-.33C666.74,232,668,230.44,668.81,229Z"/>
<path d="M652,285.6a99.59,99.59,0,0,0,2.57,9.92c-.46-3.94-.9-7.86-1.36-11.72h0c.08-4.89,4.14-15.95,9.19-28.18a72,72,0,0,0-10,17.91l-.29.89a17.7,17.7,0,0,0-.46,2A23.26,23.26,0,0,0,652,285.6Z"/>
<path d="M639.7,209.26a97.56,97.56,0,0,1,4.74,39.22c0,.66-1.09.94-1.18.17-1.66-13-1.35-26.26-4.6-39.1a.54.54,0,0,1,1-.29Z"/>
<path d="M626.25,204.45a.49.49,0,1,1,1-.17.48.48,0,0,1,0,.17,281.1,281.1,0,0,1-.39,48.46.38.38,0,0,1-.76,0C625.1,236.84,625.69,220.54,626.25,204.45Z"/>
<path d="M642.11,177.09a.7.7,0,0,1,1.19.74c-5.7,11.13-7.84,23.57-10.9,35.68a.74.74,0,0,1-.92.49.72.72,0,0,1-.52-.71C630.25,200.15,635.75,187.81,642.11,177.09Z"/>
<path d="M600.45,150.05c0,4.86,2,10.22,3.4,14.63a90.9,90.9,0,0,0,5.32,14.08c1.88,3.72,4.6,7.57,8.38,9.19s7.12-.09,10.25-2.28C620.87,187,614,182,610.61,175.27,607.85,170,603.5,157.77,600.45,150.05Z"/>
<path d="M605.16,183.46a100.69,100.69,0,0,1,6.37,10.34,50,50,0,0,1,4.84,10.73,39.19,39.19,0,0,1,1.06,11.87c-.16,4.45-1.35,8.34-2.13,12.64a.35.35,0,0,1-.41.3.36.36,0,0,1-.3-.41,113.52,113.52,0,0,0-.3-12,54,54,0,0,0-1.24-11.47c-1.86-7.54-5.75-14.26-8.84-21.23C604,183.63,604.7,182.85,605.16,183.46Z"/>
<path d="M620.11,205.59a36,36,0,0,1,1.53-11.11c.17-.4.83-.55.92,0a50.35,50.35,0,0,1-.24,11.11c-.28,4.06-.69,8.12-1,12.25a.43.43,0,1,1-.85,0h0A98.24,98.24,0,0,1,620.11,205.59Z"/>
<path d="M629.93,188.43a.46.46,0,1,1,.78.49c-1.21,2.54-1.73,5.33-2.86,7.89-.25.58-1.15.3-1.12-.32A17.89,17.89,0,0,1,629.93,188.43Z"/>
<path d="M589,175.1a68.87,68.87,0,0,1,12.84,19.7c3.38,8.53,2.86,17,2,26a.6.6,0,0,1-1.18.19.6.6,0,0,1,0-.19c-.6-8.19-1.36-16.78-3.86-24.52-2.42-7.5-6.68-13.79-11-20.11C587.26,175.34,588.41,174.42,589,175.1Z"/>
<path d="M565.31,140.61c.84,1.3,1.68,2.56,2.4,3.77,2.32,3.83,4.6,7.66,7.14,11.37a41.44,41.44,0,0,0,16,13.91C583,161.42,572.29,148.89,565.31,140.61Z"/>
<path d="M573.11,162.77a28.76,28.76,0,0,1,7.1,4.16c1.67,1.31,4.08,2.87,4.6,5.1a.25.25,0,0,1-.17.31h-.1c-2.12-.32-4.17-2.62-5.8-4-2-1.64-4.1-3.23-6-5C572.52,163.13,572.78,162.64,573.11,162.77Z"/>
<path d="M522.55,148.2c9.68,3.57,32.37,11.1,44.87,15.79a131.14,131.14,0,0,0-23.15-9.77A144.73,144.73,0,0,0,522.55,148.2Z"/>
</g>
<polygon points="144.11 375.11 139.34 430.29 144.11 430.29 150.06 382.23 164.99 382.23 187.43 439.85 193.77 439.85 170.95 375.11 144.11 375.11" fill="#000000" data-secondary="true"/>
<polygon points="301.51 375.11 296.76 430.29 301.51 430.29 307.48 382.23 322.39 382.23 344.85 439.85 351.18 439.85 328.36 375.11 301.51 375.11" fill="#000000" data-secondary="true"/>
<polygon points="142.82 293.11 157.63 366.94 152.01 366.94 138.61 293.11 142.82 293.11" fill="#000000" data-secondary="true"/>
<polygon points="211.88 293.11 226.7 366.94 221.06 366.94 207.65 293.11 211.88 293.11" fill="#000000" data-secondary="true"/>
<polygon points="281.94 293.11 296.76 366.94 291.12 366.94 277.71 293.11 281.94 293.11" fill="#000000" data-secondary="true"/>
<polygon points="304.83 312.17 124.65 312.17 122.01 299.04 302.2 299.04 304.83 312.17" fill="#0071f2" data-primary="true"/>
<polygon points="304.83 312.17 128.2 312.17 125.57 299.04 302.2 299.04 304.83 312.17" opacity="0.2" style="isolation:isolate"/>
<polygon points="307.88 327.38 127.7 327.38 125.08 314.27 305.26 314.27 307.88 327.38" fill="#0071f2" data-primary="true"/>
<polygon points="307.88 327.38 131.25 327.38 128.63 314.27 305.26 314.27 307.88 327.38" opacity="0.2" style="isolation:isolate"/>
<polygon points="310.93 342.6 130.75 342.6 128.11 329.48 308.31 329.48 310.93 342.6" fill="#0071f2" data-primary="true"/>
<polygon points="310.93 342.6 134.3 342.6 131.68 329.48 308.31 329.48 310.93 342.6" opacity="0.2" style="isolation:isolate"/>
<polygon points="313.99 357.81 133.79 357.81 131.18 344.69 311.36 344.69 313.99 357.81" fill="#0071f2" data-primary="true"/>
<polygon points="313.99 357.81 137.37 357.81 134.73 344.69 311.36 344.69 313.99 357.81" opacity="0.2" style="isolation:isolate"/>
<path d="M144,305.61a1,1,0,1,1-1-1,1,1,0,0,1,1,1Z" fill="#000000" data-secondary="true"/>
<path d="M147,320.83a1,1,0,1,1-1-1h0a1,1,0,0,1,.95.95Z" fill="#000000" data-secondary="true"/>
<path d="M150,336a1,1,0,0,1-1.93,0,1,1,0,1,1,1.93,0Z" fill="#000000" data-secondary="true"/>
<path d="M153.05,351.25a1,1,0,1,1-1-.95h0A1,1,0,0,1,153.05,351.25Z" fill="#000000" data-secondary="true"/>
<path d="M212.89,305.61a1,1,0,1,1-1-1h0a.94.94,0,0,1,.95,1Z" fill="#000000" data-secondary="true"/>
<path d="M215.93,320.83a1,1,0,1,1-1-1,1,1,0,0,1,1,1Z" fill="#000000" data-secondary="true"/>
<path d="M219,336a1,1,0,1,1-1-1h0a1,1,0,0,1,.95.95Z" fill="#000000" data-secondary="true"/>
<path d="M222,351.25a1,1,0,1,1-1-.95h0A1,1,0,0,1,222,351.25Z" fill="#000000" data-secondary="true"/>
<path d="M283.17,305.61a1,1,0,1,1-1-1,1,1,0,0,1,1,1Z" fill="#000000" data-secondary="true"/>
<path d="M286.2,320.83a1,1,0,1,1-1-1,1,1,0,0,1,1,1Z" fill="#000000" data-secondary="true"/>
<path d="M289.22,336a1,1,0,1,1-1-1,1,1,0,0,1,1,1Z" fill="#000000" data-secondary="true"/>
<path d="M292.25,351.25a1,1,0,1,1-1-.95h0A1,1,0,0,1,292.25,351.25Z" fill="#000000" data-secondary="true"/>
<polygon points="352.97 386.78 175.13 386.78 171.82 377.69 349.66 377.69 352.97 386.78" fill="#0071f2" data-primary="true"/>
<polygon points="352.97 386.78 178.68 386.78 175.38 377.69 349.66 377.69 352.97 386.78" opacity="0.2" style="isolation:isolate"/>
<polygon points="348.94 375.11 139.34 375.11 139.34 366.94 345.06 366.94 348.94 375.11" fill="#0071f2" data-primary="true"/>
<polygon points="348.94 375.11 142.9 375.11 142.9 366.94 345.06 366.94 348.94 375.11" opacity="0.2" style="isolation:isolate"/>
<path d="M534,439.85s2.79-13,8.34-15,8.94,3.81,8.94,3.81,1.31-12.39,9.2-16.12,13.79,3.9,13.79,3.9,6-15.74,16.85-15.74,16.25,23,16.25,23,6.38-6.86,12.92-3,6.52,19.09,6.52,19.09Z" fill="#b3b3b3"/>
<path d="M108.76,575.25s2.32-10.84,7-12.51,7.48,3.13,7.48,3.13,1.08-10.36,7.66-13.47,11.52,3.25,11.52,3.25,5-13.14,14.06-13.14S170,561.75,170,561.75s5.33-5.73,10.72-2.5,5.55,16,5.55,16Z" fill="#b3b3b3"/>
<path d="M672,493.81s1.67-7.8,5-9,5.38,2.3,5.38,2.3.78-7.46,5.51-9.69,8.31,2.34,8.31,2.34,3.63-9.47,10.12-9.47,9.76,13.79,9.76,13.79,3.85-4.12,7.77-1.79,3.92,11.46,3.92,11.46Z" fill="#999"/>
<path d="M177.78,495.54h81.75s-2.7-11.52-8.12-12.33-7.94,4.52-7.94,4.52.25-16.08-9.88-18.82S215,480.43,215,480.43s-6.36-8.1-15-7.66-10.85,13.9-10.85,13.9S181.26,482.06,177.78,495.54Z" fill="#999"/>
<path d="M620.72,439.85h51.42s-.13-7.66-5.18-9.7a6.9,6.9,0,0,0-8.06,2s-2-14.08-11.47-14.08-13.93,12.13-13.93,12.13a7.23,7.23,0,0,0-7.34-3C620.92,427.85,620.72,439.85,620.72,439.85Z" fill="#999"/>
<path d="M141,498.25h43.05s-.11-6.41-4.34-8.11a5.76,5.76,0,0,0-6.74,1.62S171.24,480,163.35,480s-11.66,10.16-11.66,10.16a6.14,6.14,0,0,0-6.13-2.5C141.18,488.21,141,498.25,141,498.25Z" fill="#b3b3b3"/>
<path d="M640.5,579.28h46.44s-.11-6.91-4.68-8.75a6.19,6.19,0,0,0-7.32,1.83s-1.85-12.72-10.37-12.72-12.58,11-12.58,11a6.51,6.51,0,0,0-6.62-2.7C640.68,568.45,640.5,579.28,640.5,579.28Z" fill="#b3b3b3"/>
<path d="M257.75,456.56h25s0-3.72-2.51-4.71a3.37,3.37,0,0,0-3.93.95s-1-6.85-5.57-6.85-6.77,5.9-6.77,5.9a3.5,3.5,0,0,0-3.57-1.44C257.86,450.73,257.75,456.56,257.75,456.56Z" fill="#b3b3b3"/>
<ellipse cx="432.88" cy="647.33" rx="167.3" ry="20.91" fill="#ebebeb"/>
<path d="M357.07,381.9a12,12,0,0,0,4.31-1.08s22-9.61,21.41-13.6l-8.48-4.36-7.18,5.06-11.49,8.23Z" fill="#0071f2" data-primary="true"/>
<path d="M357.07,381.9a12,12,0,0,0,4.31-1.08s22-9.61,21.41-13.6l-8.48-4.36-7.18,5.06-11.49,8.23Z" opacity="0.2"/>
<path d="M445.66,284.9s9.47,13,9.83,16.9c0,0-3,4.69-11.35,1.27a24.26,24.26,0,0,0-5.05-6.63v-7.51S442.3,288.47,445.66,284.9Z" fill="#000000" data-secondary="true"/>
<path d="M372.52,330.18c-4.74-10.49,1.58-23.05,8.41-31.17,1.82-2.16,3.93-4.07,5.89-6.1A95.23,95.23,0,0,0,397.54,280c1.42-2.26,3-4.76,3.24-7.41l1.17.08c-.35,3-1.95,5.47-3.53,7.91a72.64,72.64,0,0,1-5.23,6.71c-3.62,4.35-7.92,8-11.73,12.19-6.92,7.9-13.43,20.21-8.94,30.71Z" fill="#000000" data-secondary="true"/>
<path d="M506.49,290.67l-2,2.45s-1.2,4-4.79,3.29c0,0-22.63,26.94-31.25,34.13,0,0,4.31,9-3.95,18.67,0,0-3.24,5,.36,21.2l1.79,8.62s-22.27-1.08-52.08,7.54c0,0,.72-23-9.34-44.18a162,162,0,0,0-21.78,15.8,1.62,1.62,0,0,0-.53,1.44c0,.45-.14,1.08-1,1.8,0,0-.72,1.07.71,2.51,0,0,3.24,2.67-.89,3.67,0,0-16.35,1-24.61,14.29,0,0-8.62-7.54-4.31-18a231.39,231.39,0,0,1,25.66-36.27l17.63-16.86s8.08-9.85,17.71-9.23l30.38,1.49s7,3,11.35-1.27l27.65-25.5s-.93-2.87,4.92-3.95c0,0-.14-5.75,5.37-4.85,0,0,11.21,9.09,15.23,17h0c.22.44.42.86.59,1.29C509.25,285.76,509.72,288.15,506.49,290.67Z" fill="#0071f2" data-primary="true"/>
<path d="M403.72,304.88c6.11-3.15,12,1.79,12.62,8.06-.57-.89-1-1.88-1.62-2.72a10.56,10.56,0,0,0-11-5.34Z" opacity="0.2"/>
<path d="M396.94,334.49c6-.15,10.58,10.77,12,15.63a50.19,50.19,0,0,1,1.61,6.64c-2.66-5.53-7.35-20.95-13.65-22.27Z" fill="#0071f2" data-primary="true"/>
<path d="M396.94,334.49c6-.15,10.58,10.77,12,15.63a50.19,50.19,0,0,1,1.61,6.64c-2.66-5.53-7.35-20.95-13.65-22.27Z" opacity="0.2"/>
<path d="M354.92,364.66c6.46-6,16.07-7.76,24.54-6l-.66,1c-2.39-3.1-6.39-4.62-10-5.85l-1.66-.51c4.62.6,9.7,1.91,12.75,5.7l.81,1.15c-1.44-.17-3.18-.46-4.6-.59a33.21,33.21,0,0,0-21.17,5.16Z" opacity="0.2"/>
<path d="M453.06,308.67c5,5.71,9.39,12.36,14.13,18.32-3.21-2.23-5.69-5.34-8-8.42a61.62,61.62,0,0,1-6.09-9.9Z" opacity="0.2"/>
<path d="M484.94,276.66c7,3.2,14.48,9.74,15.4,17.79-2.94-7.55-9.3-12.77-15.4-17.79Z" opacity="0.2"/>
<path d="M514.63,533.3a33.78,33.78,0,0,1-7.06,2.69c4.81,12.32-15.79,8.8-22.64,7.32-1.33-.29-2.15-.5-2.15-.5-2.51,2.51-3.95,1.08-3.95,1.08,1.44,10.06-3.59,10.41-3.59,10.41-22.63,5.39-97.34-11.13-97.34-11.13,8.89-3.19,17-9.09,21.82-13a16.3,16.3,0,0,0,5.79-10c3.18-19.35.05-52.8.05-52.8-6.11-46.33,9-72.27,9-72.27-3.23-10.14,0-8.54,0-8.54C444.35,378,466.62,379,466.62,379c3.23,0,2.75,7.54,2.75,7.54,6.69,14,22.39,49.92,22.39,49.92,15.81,36.64,28.74,89.08,28.74,89.08C520.85,529.05,517.83,531.6,514.63,533.3Z" fill="#000000" data-secondary="true"/>
<path d="M416.34,394.11a70.55,70.55,0,0,0,19.18-1.39,50.79,50.79,0,0,0,6.14-1.81,73.34,73.34,0,0,1,19.19-3.52,48.45,48.45,0,0,1,6.49.26,90.06,90.06,0,0,0-25.25,4.58,50.2,50.2,0,0,1-25.75,1.88Z" opacity="0.2"/>
<path d="M438.25,432.18q-.57,39.75-3.95,79.38.54-39.75,3.95-79.38Z" opacity="0.2"/>
<path d="M465.18,412.79s19.76,94.82,13.65,131.1" fill="#000000" data-secondary="true"/>
<path d="M484.93,452.91a246.14,246.14,0,0,1,16,45.86,253.11,253.11,0,0,1,6,31.85c.22,1.79.42,3.58.62,5.37-5-28.31-12.24-56.27-22.64-83.08Z" opacity="0.2"/>
<path d="M514.63,533.3l-2.75,66.26a94.23,94.23,0,0,1-19.76,2.52c-12.57-30.54-7.19-58.77-7.19-58.77,6.85,1.48,27.45,5,22.64-7.32A33.78,33.78,0,0,0,514.63,533.3Z" fill="#f9b499"/>
<path d="M513,624c-3.6.72-6.47,5.39-6.47,5.39-6.47,7.9-12.57-2.15-12.57-2.15l-1.8-25.14c14.73-.72,19.76-2.52,19.76-2.52Z" fill="#e6e6e6"/>
<path d="M542.93,645.25a.84.84,0,0,1-.33.78c-4.88,3.68-19.59,2.74-19.59,2.74-6.1-1.44-15.8-1.44-15.8-1.44-14.37-1.08-17.6-6.82-17.6-6.82.72-6.11,4.31-13.29,4.31-13.29s6.1,10,12.57,2.15c0,0,2.87-4.67,6.47-5.39,5,.36,9.46,8.42,9.46,8.42a32.44,32.44,0,0,0,7.42,6.67,69.1,69.1,0,0,1,12.66,5.52A.89.89,0,0,1,542.93,645.25Z" fill="#0071f2" data-primary="true"/>
<path d="M542.73,654.07c-7.81,3.28-30.49.45-30.49.45-4.31-2.16-6.77-.36-6.77-.36-6.32,2.38-12.93,1.24-16,.49a3,3,0,0,1-2.23-2.43c-.73-5,2.33-11.71,2.33-11.71s3.23,5.74,17.6,6.82c0,0,9.7,0,15.8,1.44,0,0,14.71.94,19.59-2.74a.84.84,0,0,0,.33-.78h0c1.39.69,1.95,2.84,2.18,4.46A4.09,4.09,0,0,1,542.73,654.07Z" fill="#000000" data-secondary="true"/>
<path d="M412.39,518a25,25,0,0,1-8.91,7.77,24.88,24.88,0,0,1,8.91-7.77Z" opacity="0.2"/>
<path d="M377.9,543.17a11.59,11.59,0,0,0,5.39,5.75c.72.36,4.54-3.67,4.54-3.67A52.31,52.31,0,0,0,377.9,543.17Z" fill="#000000" data-secondary="true"/>
<path d="M377.9,543.17a11.59,11.59,0,0,0,5.39,5.75c.72.36,4.54-3.67,4.54-3.67A52.31,52.31,0,0,0,377.9,543.17Z" opacity="0.2"/>
<path d="M430.59,552.63s-15.11,12.06-38.33,28.2q-2.1,1.47-4.31,2.77L351.68,605s-11.85-.72-12.93-15.81l18.74-18.08q1.75-1.68,3.59-3.27c4.86-4.19,17.86-15.39,22.21-18.87l4.54-3.67S419.71,551.31,430.59,552.63Z" fill="#f9b499"/>
<path d="M351.68,605,337,617.88c-1.3-2.6-6.37-2.57-9.07-2.35-.76.06-1.51.2-2.26.32-5.44.9-3.73-10.9-3.73-10.9l16.85-15.81C339.83,604.23,351.68,605,351.68,605Z" fill="#e6e6e6"/>
<path d="M345.36,645.43c-.64.27-1.28.51-1.9.71a17.1,17.1,0,0,1-20.28-8.65l-5.6-11c-4.66-6.12-4.33-16.86-4.33-16.86L321.9,605s-1.71,11.8,3.73,10.9c.75-.12,1.5-.26,2.26-.32,2.7-.22,7.77-.25,9.07,2.35,1.43,3.59-.3,12.06-.3,12.06-.65,6.67,2.09,7.86,2.09,7.86,4.6,2.83,6.35,5.58,6.93,6.77A.64.64,0,0,1,345.36,645.43Z" fill="#0071f2" data-primary="true"/>
<path d="M347.43,650.41a3.08,3.08,0,0,1-2.47,3c-6.28,1.25-17.7-.7-17.7-.7-5.23-.55-12.14-13.75-15.09-19.89a12.85,12.85,0,0,0-3.44-4.37c-3.8-3.11-4.64-8.51-4.8-11.43a3.23,3.23,0,0,1,1.61-3l7.71-4.44s-.33,10.74,4.33,16.86l5.6,11a17.1,17.1,0,0,0,20.28,8.65c.62-.2,1.26-.44,1.9-.71a.64.64,0,0,0,.32-.86A9.39,9.39,0,0,1,347.43,650.41Z" fill="#000000" data-secondary="true"/>
<path d="M552.46,232c-1.22.94-3.75,2-9,2.69,0,0-5,1-8.43,8.94l-26.4,40.89h0c-4-7.88-15.23-17-15.23-17s20.24-23.88,31-38.25A47.73,47.73,0,0,1,532,215.6l4.92-9.5a.53.53,0,0,1,1,.09c.34,1.09.55,3.2-.52,7,0,0,10.22-10.15,12.65-8,0,0,1.87-2.31,2.82-1.15a1.19,1.19,0,0,1,0,1.38l-2.58,4.08s3.59-2.87,4.31-1.43c0,0,1.8,1.79-6.11,8.26,0,0-11.13,7.18-9.33,13.29,0,0,.71.72,5.74-.36,0,0,4.33-1.44,7.08-.4A1.79,1.79,0,0,1,552.46,232Z" fill="#f9b499"/>
<line x1="537.38" y1="213.18" x2="532.35" y2="217.4" fill="none" stroke="#f7a48b" stroke-miterlimit="10"/>
<polyline points="548.44 211.86 534.15 218.83 549.24 204.89" fill="none" stroke="#f7a48b" stroke-miterlimit="10"/>
<polygon points="713.38 656.67 715.89 653.8 412.38 439.89 412.38 445.83 713.38 656.67" fill="#0071f2" data-primary="true"/>
<path d="M438.45,289.05c-8.26,1.37-16.45-6.56-18.3-17.72s3.35-21.31,11.6-22.68c6.51-1.07,13,3.63,16.33,11.14a26.87,26.87,0,0,1,2,6.59,25.45,25.45,0,0,1,.32,2.84C451,279.21,446,287.81,438.45,289.05Z" fill="#f9b499"/>
<path d="M444.7,254.37c-2.72-3-3.94-3.57-3.94-3.57S439,257,422.18,263.71c0,0-1.68,5.89-1.68,17.68,0,0,.84,18.51-6.73,20.19,0,0-7.58,0-16,7.58l-19.36,18.51s-8-3.71-1.32-17.49a43.87,43.87,0,0,1,7.51-10.77l6.09-6.49c1.6-1.71,3.24-3.39,5-4.95,2.24-2,6.5-7.22,4.61-16.68,0,0-4.36-16.83,5.05-16.83.84,0,4.21-14.31,21-10.1,0,0,7.57,3.37,11.78,1.68,0,0,3.45-3.45,6.6,2.15a12.91,12.91,0,0,1,1.38,3.86,24.29,24.29,0,0,1,.5,5,22.55,22.55,0,0,0-1.37-2C445.1,254.82,444.9,254.59,444.7,254.37Z" fill="#000000" data-secondary="true"/>
<path d="M420.46,269.77a.33.33,0,0,1-.33-.27.34.34,0,0,1,.26-.42l7.72-1.74a.36.36,0,0,1,.42.26.36.36,0,0,1-.26.42l-7.73,1.74Z" fill="#000000" data-secondary="true"/>
<ellipse cx="434.12" cy="267.5" rx="5.93" ry="4.85" fill="#000000" data-secondary="true"/>
<path d="M450.36,269.22a6.72,6.72,0,0,1-1.88.26c-3.27,0-5.92-2.17-5.92-4.85s2.44-4.67,5.52-4.84a26.87,26.87,0,0,1,2,6.59A25.45,25.45,0,0,1,450.36,269.22Z" fill="#000000" data-secondary="true"/>
<path d="M439.09,265.21a.4.4,0,0,1-.23-.08.36.36,0,0,1,0-.49c.05-.05,1.09-1.26,3.74-1.26a.35.35,0,0,1,0,.7,4.34,4.34,0,0,0-3.21,1A.34.34,0,0,1,439.09,265.21Z" fill="#000000" data-secondary="true"/>
<path d="M439.09,288.93v7.51s9.21,8.59,6.7,16.86c0,0-5,10.05-18.68-2.52,0,0-6.22-8-13.34-9.2,0,0,4.88-.62,6.58-14.1,0,0,0-10.05.34-13.67C420.69,273.81,425.2,291.14,439.09,288.93Z" fill="#f9b499"/>
<path d="M439.09,288.93v4.16a12.27,12.27,0,0,1-12.56-8.62S431.31,290.42,439.09,288.93Z" fill="#f7a48b"/>
<circle cx="417.97" cy="273.81" r="5.05" fill="#f9b499"/>
<path d="M358.4,380s25.25,32.48,36.39,42.54c0,0,0,23,6.1,18,0,0,1.08,6.46,4.67,5,0,0,6.83,12.57,12.93,5,0,0-4.31-4.47-2.15-7.44,0,0,3.59,4.21,8.26,4.21,0,0,3.59-.36.72-2.51a12.31,12.31,0,0,1-6.83-11.5s-1.79-15.44-11.13-24.06l-26.87-41.46S366.56,369,358.4,380Z" fill="#f9b499"/>
<line x1="416.34" y1="443.06" x2="416.34" y2="436.72" fill="none" stroke="#f7a48b" stroke-miterlimit="10"/>
<line x1="400.89" y1="440.45" x2="399.72" y2="429.15" fill="none" stroke="#f7a48b" stroke-miterlimit="10"/>
<line x1="405.56" y1="445.47" x2="404.73" y2="432.18" fill="none" stroke="#f7a48b" stroke-miterlimit="10"/>
<path d="M401.57,400.27l-.5-.76c4.52-15.27.44-21.6-.05-22.28a3.49,3.49,0,0,0-1.53-1.2c-4.34-1.82-8.07,1.33-10.61,4.66a32.08,32.08,0,0,0-3.55,6c-4.23,8.3-4.91,15.54-3.82,21.57,2.14,11.86,11.15,19.13,13.57,20.89l.6.42-.37.58-.15-.09c-1.41-1-12.59-9-14.53-22.82-.84-5.93,0-12.91,4.07-20.85a31.83,31.83,0,0,1,3.76-6.37c2.67-3.43,6.6-6.61,11.3-4.65a4.22,4.22,0,0,1,1.82,1.44C402.09,377.55,406.44,384.27,401.57,400.27Z" fill="#000000" data-secondary="true"/>
</svg>